%TF.GenerationSoftware,KiCad,Pcbnew,9.0.0*%
%TF.CreationDate,2025-08-17T08:57:57-07:00*%
%TF.ProjectId,OffsetAttenuator,4f666673-6574-4417-9474-656e7561746f,rev?*%
%TF.SameCoordinates,Original*%
%TF.FileFunction,Soldermask,Bot*%
%TF.FilePolarity,Negative*%
%FSLAX46Y46*%
G04 Gerber Fmt 4.6, Leading zero omitted, Abs format (unit mm)*
G04 Created by KiCad (PCBNEW 9.0.0) date 2025-08-17 08:57:57*
%MOMM*%
%LPD*%
G01*
G04 APERTURE LIST*
%ADD10R,1.208000X1.208000*%
%ADD11C,1.208000*%
%ADD12C,2.100000*%
%ADD13C,2.700000*%
%ADD14C,1.600000*%
%ADD15O,1.600000X1.600000*%
%ADD16C,2.000000*%
%ADD17R,2.000000X1.905000*%
%ADD18O,2.000000X1.905000*%
%ADD19R,1.268000X1.268000*%
%ADD20C,1.268000*%
%ADD21R,1.700000X1.700000*%
%ADD22O,1.700000X1.700000*%
%ADD23R,1.600000X1.600000*%
%ADD24R,1.800000X1.800000*%
%ADD25C,1.800000*%
G04 APERTURE END LIST*
D10*
%TO.C,Y1*%
X97120000Y-47690000D03*
D11*
X89500000Y-47690000D03*
X89500000Y-55310000D03*
X97120000Y-55310000D03*
%TD*%
D12*
%TO.C,SW2*%
X53000000Y-48860000D03*
X53000000Y-46370000D03*
%TD*%
D13*
%TO.C,REF\u002A\u002A*%
X121000000Y-81000000D03*
%TD*%
%TO.C,REF\u002A\u002A*%
X35500000Y-23000000D03*
%TD*%
D14*
%TO.C,R4*%
X61000000Y-45150000D03*
D15*
X61000000Y-57850000D03*
%TD*%
D14*
%TO.C,C1*%
X53100000Y-32000000D03*
X53100000Y-37000000D03*
%TD*%
D16*
%TO.C,J2*%
X114665000Y-46360000D03*
X114675000Y-56500000D03*
X109595000Y-51420000D03*
X109605000Y-48870000D03*
%TD*%
D17*
%TO.C,U1*%
X81750000Y-54000000D03*
D18*
X81750000Y-51460000D03*
X81750000Y-48920000D03*
%TD*%
D13*
%TO.C,REF\u002A\u002A*%
X121000000Y-23000000D03*
%TD*%
D14*
%TO.C,C3*%
X78750000Y-60500000D03*
X83750000Y-60500000D03*
%TD*%
D16*
%TO.C,J1*%
X41835000Y-56560000D03*
X41825000Y-46420000D03*
X46905000Y-51500000D03*
X46895000Y-54050000D03*
%TD*%
D19*
%TO.C,RV1*%
X67960000Y-54040000D03*
D20*
X70500000Y-48960000D03*
X73040000Y-54040000D03*
%TD*%
D14*
%TO.C,R3*%
X80900000Y-28150000D03*
D15*
X80900000Y-40850000D03*
%TD*%
D14*
%TO.C,R1*%
X61000000Y-28150000D03*
D15*
X61000000Y-40850000D03*
%TD*%
D13*
%TO.C,REF\u002A\u002A*%
X35500000Y-81000000D03*
%TD*%
D14*
%TO.C,R5*%
X105000000Y-45150000D03*
D15*
X105000000Y-57850000D03*
%TD*%
D12*
%TO.C,SW1*%
X52990000Y-58460000D03*
X52990000Y-55970000D03*
%TD*%
D21*
%TO.C,BT1*%
X53000000Y-72500000D03*
D22*
X53000000Y-75040000D03*
%TD*%
D23*
%TO.C,D1*%
X71000000Y-38310000D03*
D15*
X71000000Y-30690000D03*
%TD*%
D14*
%TO.C,C2*%
X88100000Y-37000000D03*
X88100000Y-32000000D03*
%TD*%
D24*
%TO.C,D2*%
X95500000Y-34500000D03*
D25*
X98040000Y-34500000D03*
%TD*%
M02*
