%TF.GenerationSoftware,KiCad,Pcbnew,9.0.0*%
%TF.CreationDate,2025-08-17T08:57:57-07:00*%
%TF.ProjectId,OffsetAttenuator,4f666673-6574-4417-9474-656e7561746f,rev?*%
%TF.SameCoordinates,Original*%
%TF.FileFunction,Legend,Top*%
%TF.FilePolarity,Positive*%
%FSLAX46Y46*%
G04 Gerber Fmt 4.6, Leading zero omitted, Abs format (unit mm)*
G04 Created by KiCad (PCBNEW 9.0.0) date 2025-08-17 08:57:57*
%MOMM*%
%LPD*%
G01*
G04 APERTURE LIST*
G04 Aperture macros list*
%AMRoundRect*
0 Rectangle with rounded corners*
0 $1 Rounding radius*
0 $2 $3 $4 $5 $6 $7 $8 $9 X,Y pos of 4 corners*
0 Add a 4 corners polygon primitive as box body*
4,1,4,$2,$3,$4,$5,$6,$7,$8,$9,$2,$3,0*
0 Add four circle primitives for the rounded corners*
1,1,$1+$1,$2,$3*
1,1,$1+$1,$4,$5*
1,1,$1+$1,$6,$7*
1,1,$1+$1,$8,$9*
0 Add four rect primitives between the rounded corners*
20,1,$1+$1,$2,$3,$4,$5,0*
20,1,$1+$1,$4,$5,$6,$7,0*
20,1,$1+$1,$6,$7,$8,$9,0*
20,1,$1+$1,$8,$9,$2,$3,0*%
G04 Aperture macros list end*
%ADD10C,0.100000*%
%ADD11C,0.300000*%
%ADD12C,0.150000*%
%ADD13C,0.127000*%
%ADD14C,0.200000*%
%ADD15C,0.120000*%
%ADD16RoundRect,0.102000X0.604000X0.604000X-0.604000X0.604000X-0.604000X-0.604000X0.604000X-0.604000X0*%
%ADD17C,1.412000*%
%ADD18C,2.100000*%
%ADD19C,2.700000*%
%ADD20C,1.600000*%
%ADD21O,1.600000X1.600000*%
%ADD22C,2.000000*%
%ADD23R,2.000000X1.905000*%
%ADD24O,2.000000X1.905000*%
%ADD25RoundRect,0.102000X-0.634000X-0.634000X0.634000X-0.634000X0.634000X0.634000X-0.634000X0.634000X0*%
%ADD26C,1.472000*%
%ADD27R,1.700000X1.700000*%
%ADD28O,1.700000X1.700000*%
%ADD29R,1.600000X1.600000*%
%ADD30R,1.800000X1.800000*%
%ADD31C,1.800000*%
G04 APERTURE END LIST*
D10*
X49372419Y-58196115D02*
X48372419Y-58196115D01*
X48372419Y-58196115D02*
X48372419Y-57815163D01*
X48372419Y-57815163D02*
X48420038Y-57719925D01*
X48420038Y-57719925D02*
X48467657Y-57672306D01*
X48467657Y-57672306D02*
X48562895Y-57624687D01*
X48562895Y-57624687D02*
X48705752Y-57624687D01*
X48705752Y-57624687D02*
X48800990Y-57672306D01*
X48800990Y-57672306D02*
X48848609Y-57719925D01*
X48848609Y-57719925D02*
X48896228Y-57815163D01*
X48896228Y-57815163D02*
X48896228Y-58196115D01*
X48372419Y-57005639D02*
X48372419Y-56815163D01*
X48372419Y-56815163D02*
X48420038Y-56719925D01*
X48420038Y-56719925D02*
X48515276Y-56624687D01*
X48515276Y-56624687D02*
X48705752Y-56577068D01*
X48705752Y-56577068D02*
X49039085Y-56577068D01*
X49039085Y-56577068D02*
X49229561Y-56624687D01*
X49229561Y-56624687D02*
X49324800Y-56719925D01*
X49324800Y-56719925D02*
X49372419Y-56815163D01*
X49372419Y-56815163D02*
X49372419Y-57005639D01*
X49372419Y-57005639D02*
X49324800Y-57100877D01*
X49324800Y-57100877D02*
X49229561Y-57196115D01*
X49229561Y-57196115D02*
X49039085Y-57243734D01*
X49039085Y-57243734D02*
X48705752Y-57243734D01*
X48705752Y-57243734D02*
X48515276Y-57196115D01*
X48515276Y-57196115D02*
X48420038Y-57100877D01*
X48420038Y-57100877D02*
X48372419Y-57005639D01*
X48372419Y-56243734D02*
X49372419Y-56005639D01*
X49372419Y-56005639D02*
X48658133Y-55815163D01*
X48658133Y-55815163D02*
X49372419Y-55624687D01*
X49372419Y-55624687D02*
X48372419Y-55386592D01*
X48848609Y-55005639D02*
X48848609Y-54672306D01*
X49372419Y-54529449D02*
X49372419Y-55005639D01*
X49372419Y-55005639D02*
X48372419Y-55005639D01*
X48372419Y-55005639D02*
X48372419Y-54529449D01*
X49372419Y-53529449D02*
X48896228Y-53862782D01*
X49372419Y-54100877D02*
X48372419Y-54100877D01*
X48372419Y-54100877D02*
X48372419Y-53719925D01*
X48372419Y-53719925D02*
X48420038Y-53624687D01*
X48420038Y-53624687D02*
X48467657Y-53577068D01*
X48467657Y-53577068D02*
X48562895Y-53529449D01*
X48562895Y-53529449D02*
X48705752Y-53529449D01*
X48705752Y-53529449D02*
X48800990Y-53577068D01*
X48800990Y-53577068D02*
X48848609Y-53624687D01*
X48848609Y-53624687D02*
X48896228Y-53719925D01*
X48896228Y-53719925D02*
X48896228Y-54100877D01*
X48848609Y-48862782D02*
X48896228Y-48719925D01*
X48896228Y-48719925D02*
X48943847Y-48672306D01*
X48943847Y-48672306D02*
X49039085Y-48624687D01*
X49039085Y-48624687D02*
X49181942Y-48624687D01*
X49181942Y-48624687D02*
X49277180Y-48672306D01*
X49277180Y-48672306D02*
X49324800Y-48719925D01*
X49324800Y-48719925D02*
X49372419Y-48815163D01*
X49372419Y-48815163D02*
X49372419Y-49196115D01*
X49372419Y-49196115D02*
X48372419Y-49196115D01*
X48372419Y-49196115D02*
X48372419Y-48862782D01*
X48372419Y-48862782D02*
X48420038Y-48767544D01*
X48420038Y-48767544D02*
X48467657Y-48719925D01*
X48467657Y-48719925D02*
X48562895Y-48672306D01*
X48562895Y-48672306D02*
X48658133Y-48672306D01*
X48658133Y-48672306D02*
X48753371Y-48719925D01*
X48753371Y-48719925D02*
X48800990Y-48767544D01*
X48800990Y-48767544D02*
X48848609Y-48862782D01*
X48848609Y-48862782D02*
X48848609Y-49196115D01*
X48896228Y-48005639D02*
X49372419Y-48005639D01*
X48372419Y-48338972D02*
X48896228Y-48005639D01*
X48896228Y-48005639D02*
X48372419Y-47672306D01*
X49372419Y-47338972D02*
X48372419Y-47338972D01*
X48372419Y-47338972D02*
X48372419Y-46958020D01*
X48372419Y-46958020D02*
X48420038Y-46862782D01*
X48420038Y-46862782D02*
X48467657Y-46815163D01*
X48467657Y-46815163D02*
X48562895Y-46767544D01*
X48562895Y-46767544D02*
X48705752Y-46767544D01*
X48705752Y-46767544D02*
X48800990Y-46815163D01*
X48800990Y-46815163D02*
X48848609Y-46862782D01*
X48848609Y-46862782D02*
X48896228Y-46958020D01*
X48896228Y-46958020D02*
X48896228Y-47338972D01*
X49086704Y-46386591D02*
X49086704Y-45910401D01*
X49372419Y-46481829D02*
X48372419Y-46148496D01*
X48372419Y-46148496D02*
X49372419Y-45815163D01*
X49324800Y-45529448D02*
X49372419Y-45386591D01*
X49372419Y-45386591D02*
X49372419Y-45148496D01*
X49372419Y-45148496D02*
X49324800Y-45053258D01*
X49324800Y-45053258D02*
X49277180Y-45005639D01*
X49277180Y-45005639D02*
X49181942Y-44958020D01*
X49181942Y-44958020D02*
X49086704Y-44958020D01*
X49086704Y-44958020D02*
X48991466Y-45005639D01*
X48991466Y-45005639D02*
X48943847Y-45053258D01*
X48943847Y-45053258D02*
X48896228Y-45148496D01*
X48896228Y-45148496D02*
X48848609Y-45338972D01*
X48848609Y-45338972D02*
X48800990Y-45434210D01*
X48800990Y-45434210D02*
X48753371Y-45481829D01*
X48753371Y-45481829D02*
X48658133Y-45529448D01*
X48658133Y-45529448D02*
X48562895Y-45529448D01*
X48562895Y-45529448D02*
X48467657Y-45481829D01*
X48467657Y-45481829D02*
X48420038Y-45434210D01*
X48420038Y-45434210D02*
X48372419Y-45338972D01*
X48372419Y-45338972D02*
X48372419Y-45100877D01*
X48372419Y-45100877D02*
X48420038Y-44958020D01*
X49324800Y-44577067D02*
X49372419Y-44434210D01*
X49372419Y-44434210D02*
X49372419Y-44196115D01*
X49372419Y-44196115D02*
X49324800Y-44100877D01*
X49324800Y-44100877D02*
X49277180Y-44053258D01*
X49277180Y-44053258D02*
X49181942Y-44005639D01*
X49181942Y-44005639D02*
X49086704Y-44005639D01*
X49086704Y-44005639D02*
X48991466Y-44053258D01*
X48991466Y-44053258D02*
X48943847Y-44100877D01*
X48943847Y-44100877D02*
X48896228Y-44196115D01*
X48896228Y-44196115D02*
X48848609Y-44386591D01*
X48848609Y-44386591D02*
X48800990Y-44481829D01*
X48800990Y-44481829D02*
X48753371Y-44529448D01*
X48753371Y-44529448D02*
X48658133Y-44577067D01*
X48658133Y-44577067D02*
X48562895Y-44577067D01*
X48562895Y-44577067D02*
X48467657Y-44529448D01*
X48467657Y-44529448D02*
X48420038Y-44481829D01*
X48420038Y-44481829D02*
X48372419Y-44386591D01*
X48372419Y-44386591D02*
X48372419Y-44148496D01*
X48372419Y-44148496D02*
X48420038Y-44005639D01*
D11*
X37154510Y-78100828D02*
X37154510Y-76600828D01*
X37797368Y-78100828D02*
X37797368Y-77315114D01*
X37797368Y-77315114D02*
X37725939Y-77172257D01*
X37725939Y-77172257D02*
X37583082Y-77100828D01*
X37583082Y-77100828D02*
X37368796Y-77100828D01*
X37368796Y-77100828D02*
X37225939Y-77172257D01*
X37225939Y-77172257D02*
X37154510Y-77243685D01*
X38297368Y-77100828D02*
X38868796Y-77100828D01*
X38511653Y-76600828D02*
X38511653Y-77886542D01*
X38511653Y-77886542D02*
X38583082Y-78029400D01*
X38583082Y-78029400D02*
X38725939Y-78100828D01*
X38725939Y-78100828D02*
X38868796Y-78100828D01*
X39154511Y-77100828D02*
X39725939Y-77100828D01*
X39368796Y-76600828D02*
X39368796Y-77886542D01*
X39368796Y-77886542D02*
X39440225Y-78029400D01*
X39440225Y-78029400D02*
X39583082Y-78100828D01*
X39583082Y-78100828D02*
X39725939Y-78100828D01*
X40225939Y-77100828D02*
X40225939Y-78600828D01*
X40225939Y-77172257D02*
X40368797Y-77100828D01*
X40368797Y-77100828D02*
X40654511Y-77100828D01*
X40654511Y-77100828D02*
X40797368Y-77172257D01*
X40797368Y-77172257D02*
X40868797Y-77243685D01*
X40868797Y-77243685D02*
X40940225Y-77386542D01*
X40940225Y-77386542D02*
X40940225Y-77815114D01*
X40940225Y-77815114D02*
X40868797Y-77957971D01*
X40868797Y-77957971D02*
X40797368Y-78029400D01*
X40797368Y-78029400D02*
X40654511Y-78100828D01*
X40654511Y-78100828D02*
X40368797Y-78100828D01*
X40368797Y-78100828D02*
X40225939Y-78029400D01*
X41511654Y-78029400D02*
X41654511Y-78100828D01*
X41654511Y-78100828D02*
X41940225Y-78100828D01*
X41940225Y-78100828D02*
X42083082Y-78029400D01*
X42083082Y-78029400D02*
X42154511Y-77886542D01*
X42154511Y-77886542D02*
X42154511Y-77815114D01*
X42154511Y-77815114D02*
X42083082Y-77672257D01*
X42083082Y-77672257D02*
X41940225Y-77600828D01*
X41940225Y-77600828D02*
X41725940Y-77600828D01*
X41725940Y-77600828D02*
X41583082Y-77529400D01*
X41583082Y-77529400D02*
X41511654Y-77386542D01*
X41511654Y-77386542D02*
X41511654Y-77315114D01*
X41511654Y-77315114D02*
X41583082Y-77172257D01*
X41583082Y-77172257D02*
X41725940Y-77100828D01*
X41725940Y-77100828D02*
X41940225Y-77100828D01*
X41940225Y-77100828D02*
X42083082Y-77172257D01*
X42797368Y-77957971D02*
X42868797Y-78029400D01*
X42868797Y-78029400D02*
X42797368Y-78100828D01*
X42797368Y-78100828D02*
X42725940Y-78029400D01*
X42725940Y-78029400D02*
X42797368Y-77957971D01*
X42797368Y-77957971D02*
X42797368Y-78100828D01*
X42797368Y-77172257D02*
X42868797Y-77243685D01*
X42868797Y-77243685D02*
X42797368Y-77315114D01*
X42797368Y-77315114D02*
X42725940Y-77243685D01*
X42725940Y-77243685D02*
X42797368Y-77172257D01*
X42797368Y-77172257D02*
X42797368Y-77315114D01*
X44583083Y-76529400D02*
X43297369Y-78457971D01*
X46154512Y-76529400D02*
X44868798Y-78457971D01*
X46511655Y-77100828D02*
X46797370Y-78100828D01*
X46797370Y-78100828D02*
X47083084Y-77386542D01*
X47083084Y-77386542D02*
X47368798Y-78100828D01*
X47368798Y-78100828D02*
X47654512Y-77100828D01*
X48083084Y-77100828D02*
X48368799Y-78100828D01*
X48368799Y-78100828D02*
X48654513Y-77386542D01*
X48654513Y-77386542D02*
X48940227Y-78100828D01*
X48940227Y-78100828D02*
X49225941Y-77100828D01*
X49654513Y-77100828D02*
X49940228Y-78100828D01*
X49940228Y-78100828D02*
X50225942Y-77386542D01*
X50225942Y-77386542D02*
X50511656Y-78100828D01*
X50511656Y-78100828D02*
X50797370Y-77100828D01*
X51368799Y-77957971D02*
X51440228Y-78029400D01*
X51440228Y-78029400D02*
X51368799Y-78100828D01*
X51368799Y-78100828D02*
X51297371Y-78029400D01*
X51297371Y-78029400D02*
X51368799Y-77957971D01*
X51368799Y-77957971D02*
X51368799Y-78100828D01*
X51940228Y-77100828D02*
X52225943Y-78100828D01*
X52225943Y-78100828D02*
X52511657Y-77386542D01*
X52511657Y-77386542D02*
X52797371Y-78100828D01*
X52797371Y-78100828D02*
X53083085Y-77100828D01*
X53725943Y-78100828D02*
X54011657Y-78100828D01*
X54011657Y-78100828D02*
X54154514Y-78029400D01*
X54154514Y-78029400D02*
X54225943Y-77957971D01*
X54225943Y-77957971D02*
X54368800Y-77743685D01*
X54368800Y-77743685D02*
X54440229Y-77457971D01*
X54440229Y-77457971D02*
X54440229Y-76886542D01*
X54440229Y-76886542D02*
X54368800Y-76743685D01*
X54368800Y-76743685D02*
X54297372Y-76672257D01*
X54297372Y-76672257D02*
X54154514Y-76600828D01*
X54154514Y-76600828D02*
X53868800Y-76600828D01*
X53868800Y-76600828D02*
X53725943Y-76672257D01*
X53725943Y-76672257D02*
X53654514Y-76743685D01*
X53654514Y-76743685D02*
X53583086Y-76886542D01*
X53583086Y-76886542D02*
X53583086Y-77243685D01*
X53583086Y-77243685D02*
X53654514Y-77386542D01*
X53654514Y-77386542D02*
X53725943Y-77457971D01*
X53725943Y-77457971D02*
X53868800Y-77529400D01*
X53868800Y-77529400D02*
X54154514Y-77529400D01*
X54154514Y-77529400D02*
X54297372Y-77457971D01*
X54297372Y-77457971D02*
X54368800Y-77386542D01*
X54368800Y-77386542D02*
X54440229Y-77243685D01*
X55725943Y-78100828D02*
X55725943Y-76600828D01*
X55725943Y-78029400D02*
X55583085Y-78100828D01*
X55583085Y-78100828D02*
X55297371Y-78100828D01*
X55297371Y-78100828D02*
X55154514Y-78029400D01*
X55154514Y-78029400D02*
X55083085Y-77957971D01*
X55083085Y-77957971D02*
X55011657Y-77815114D01*
X55011657Y-77815114D02*
X55011657Y-77386542D01*
X55011657Y-77386542D02*
X55083085Y-77243685D01*
X55083085Y-77243685D02*
X55154514Y-77172257D01*
X55154514Y-77172257D02*
X55297371Y-77100828D01*
X55297371Y-77100828D02*
X55583085Y-77100828D01*
X55583085Y-77100828D02*
X55725943Y-77172257D01*
X57083086Y-77100828D02*
X57083086Y-78100828D01*
X56440228Y-77100828D02*
X56440228Y-77886542D01*
X56440228Y-77886542D02*
X56511657Y-78029400D01*
X56511657Y-78029400D02*
X56654514Y-78100828D01*
X56654514Y-78100828D02*
X56868800Y-78100828D01*
X56868800Y-78100828D02*
X57011657Y-78029400D01*
X57011657Y-78029400D02*
X57083086Y-77957971D01*
X57797371Y-77100828D02*
X57797371Y-78600828D01*
X57797371Y-77172257D02*
X57940229Y-77100828D01*
X57940229Y-77100828D02*
X58225943Y-77100828D01*
X58225943Y-77100828D02*
X58368800Y-77172257D01*
X58368800Y-77172257D02*
X58440229Y-77243685D01*
X58440229Y-77243685D02*
X58511657Y-77386542D01*
X58511657Y-77386542D02*
X58511657Y-77815114D01*
X58511657Y-77815114D02*
X58440229Y-77957971D01*
X58440229Y-77957971D02*
X58368800Y-78029400D01*
X58368800Y-78029400D02*
X58225943Y-78100828D01*
X58225943Y-78100828D02*
X57940229Y-78100828D01*
X57940229Y-78100828D02*
X57797371Y-78029400D01*
X59154514Y-77957971D02*
X59225943Y-78029400D01*
X59225943Y-78029400D02*
X59154514Y-78100828D01*
X59154514Y-78100828D02*
X59083086Y-78029400D01*
X59083086Y-78029400D02*
X59154514Y-77957971D01*
X59154514Y-77957971D02*
X59154514Y-78100828D01*
X60083086Y-78100828D02*
X59940229Y-78029400D01*
X59940229Y-78029400D02*
X59868800Y-77957971D01*
X59868800Y-77957971D02*
X59797372Y-77815114D01*
X59797372Y-77815114D02*
X59797372Y-77386542D01*
X59797372Y-77386542D02*
X59868800Y-77243685D01*
X59868800Y-77243685D02*
X59940229Y-77172257D01*
X59940229Y-77172257D02*
X60083086Y-77100828D01*
X60083086Y-77100828D02*
X60297372Y-77100828D01*
X60297372Y-77100828D02*
X60440229Y-77172257D01*
X60440229Y-77172257D02*
X60511658Y-77243685D01*
X60511658Y-77243685D02*
X60583086Y-77386542D01*
X60583086Y-77386542D02*
X60583086Y-77815114D01*
X60583086Y-77815114D02*
X60511658Y-77957971D01*
X60511658Y-77957971D02*
X60440229Y-78029400D01*
X60440229Y-78029400D02*
X60297372Y-78100828D01*
X60297372Y-78100828D02*
X60083086Y-78100828D01*
X61225943Y-78100828D02*
X61225943Y-77100828D01*
X61225943Y-77386542D02*
X61297372Y-77243685D01*
X61297372Y-77243685D02*
X61368801Y-77172257D01*
X61368801Y-77172257D02*
X61511658Y-77100828D01*
X61511658Y-77100828D02*
X61654515Y-77100828D01*
X62797372Y-77100828D02*
X62797372Y-78315114D01*
X62797372Y-78315114D02*
X62725943Y-78457971D01*
X62725943Y-78457971D02*
X62654514Y-78529400D01*
X62654514Y-78529400D02*
X62511657Y-78600828D01*
X62511657Y-78600828D02*
X62297372Y-78600828D01*
X62297372Y-78600828D02*
X62154514Y-78529400D01*
X62797372Y-78029400D02*
X62654514Y-78100828D01*
X62654514Y-78100828D02*
X62368800Y-78100828D01*
X62368800Y-78100828D02*
X62225943Y-78029400D01*
X62225943Y-78029400D02*
X62154514Y-77957971D01*
X62154514Y-77957971D02*
X62083086Y-77815114D01*
X62083086Y-77815114D02*
X62083086Y-77386542D01*
X62083086Y-77386542D02*
X62154514Y-77243685D01*
X62154514Y-77243685D02*
X62225943Y-77172257D01*
X62225943Y-77172257D02*
X62368800Y-77100828D01*
X62368800Y-77100828D02*
X62654514Y-77100828D01*
X62654514Y-77100828D02*
X62797372Y-77172257D01*
X64583086Y-76529400D02*
X63297372Y-78457971D01*
X64868801Y-77100828D02*
X65440229Y-77100828D01*
X65083086Y-76600828D02*
X65083086Y-77886542D01*
X65083086Y-77886542D02*
X65154515Y-78029400D01*
X65154515Y-78029400D02*
X65297372Y-78100828D01*
X65297372Y-78100828D02*
X65440229Y-78100828D01*
X66511658Y-78029400D02*
X66368801Y-78100828D01*
X66368801Y-78100828D02*
X66083087Y-78100828D01*
X66083087Y-78100828D02*
X65940229Y-78029400D01*
X65940229Y-78029400D02*
X65868801Y-77886542D01*
X65868801Y-77886542D02*
X65868801Y-77315114D01*
X65868801Y-77315114D02*
X65940229Y-77172257D01*
X65940229Y-77172257D02*
X66083087Y-77100828D01*
X66083087Y-77100828D02*
X66368801Y-77100828D01*
X66368801Y-77100828D02*
X66511658Y-77172257D01*
X66511658Y-77172257D02*
X66583087Y-77315114D01*
X66583087Y-77315114D02*
X66583087Y-77457971D01*
X66583087Y-77457971D02*
X65868801Y-77600828D01*
X67154515Y-78029400D02*
X67297372Y-78100828D01*
X67297372Y-78100828D02*
X67583086Y-78100828D01*
X67583086Y-78100828D02*
X67725943Y-78029400D01*
X67725943Y-78029400D02*
X67797372Y-77886542D01*
X67797372Y-77886542D02*
X67797372Y-77815114D01*
X67797372Y-77815114D02*
X67725943Y-77672257D01*
X67725943Y-77672257D02*
X67583086Y-77600828D01*
X67583086Y-77600828D02*
X67368801Y-77600828D01*
X67368801Y-77600828D02*
X67225943Y-77529400D01*
X67225943Y-77529400D02*
X67154515Y-77386542D01*
X67154515Y-77386542D02*
X67154515Y-77315114D01*
X67154515Y-77315114D02*
X67225943Y-77172257D01*
X67225943Y-77172257D02*
X67368801Y-77100828D01*
X67368801Y-77100828D02*
X67583086Y-77100828D01*
X67583086Y-77100828D02*
X67725943Y-77172257D01*
X68225944Y-77100828D02*
X68797372Y-77100828D01*
X68440229Y-76600828D02*
X68440229Y-77886542D01*
X68440229Y-77886542D02*
X68511658Y-78029400D01*
X68511658Y-78029400D02*
X68654515Y-78100828D01*
X68654515Y-78100828D02*
X68797372Y-78100828D01*
X68940230Y-78243685D02*
X70083087Y-78243685D01*
X71011658Y-78029400D02*
X70868801Y-78100828D01*
X70868801Y-78100828D02*
X70583087Y-78100828D01*
X70583087Y-78100828D02*
X70440229Y-78029400D01*
X70440229Y-78029400D02*
X70368801Y-77886542D01*
X70368801Y-77886542D02*
X70368801Y-77315114D01*
X70368801Y-77315114D02*
X70440229Y-77172257D01*
X70440229Y-77172257D02*
X70583087Y-77100828D01*
X70583087Y-77100828D02*
X70868801Y-77100828D01*
X70868801Y-77100828D02*
X71011658Y-77172257D01*
X71011658Y-77172257D02*
X71083087Y-77315114D01*
X71083087Y-77315114D02*
X71083087Y-77457971D01*
X71083087Y-77457971D02*
X70368801Y-77600828D01*
X72368801Y-77100828D02*
X72368801Y-78600828D01*
X72368801Y-78029400D02*
X72225943Y-78100828D01*
X72225943Y-78100828D02*
X71940229Y-78100828D01*
X71940229Y-78100828D02*
X71797372Y-78029400D01*
X71797372Y-78029400D02*
X71725943Y-77957971D01*
X71725943Y-77957971D02*
X71654515Y-77815114D01*
X71654515Y-77815114D02*
X71654515Y-77386542D01*
X71654515Y-77386542D02*
X71725943Y-77243685D01*
X71725943Y-77243685D02*
X71797372Y-77172257D01*
X71797372Y-77172257D02*
X71940229Y-77100828D01*
X71940229Y-77100828D02*
X72225943Y-77100828D01*
X72225943Y-77100828D02*
X72368801Y-77172257D01*
X73083086Y-77100828D02*
X73083086Y-78600828D01*
X73083086Y-77172257D02*
X73225944Y-77100828D01*
X73225944Y-77100828D02*
X73511658Y-77100828D01*
X73511658Y-77100828D02*
X73654515Y-77172257D01*
X73654515Y-77172257D02*
X73725944Y-77243685D01*
X73725944Y-77243685D02*
X73797372Y-77386542D01*
X73797372Y-77386542D02*
X73797372Y-77815114D01*
X73797372Y-77815114D02*
X73725944Y-77957971D01*
X73725944Y-77957971D02*
X73654515Y-78029400D01*
X73654515Y-78029400D02*
X73511658Y-78100828D01*
X73511658Y-78100828D02*
X73225944Y-78100828D01*
X73225944Y-78100828D02*
X73083086Y-78029400D01*
X74225944Y-77100828D02*
X74797372Y-77100828D01*
X74440229Y-76600828D02*
X74440229Y-77886542D01*
X74440229Y-77886542D02*
X74511658Y-78029400D01*
X74511658Y-78029400D02*
X74654515Y-78100828D01*
X74654515Y-78100828D02*
X74797372Y-78100828D01*
X74940230Y-78243685D02*
X76083087Y-78243685D01*
X76225944Y-77100828D02*
X76797372Y-77100828D01*
X76440229Y-78100828D02*
X76440229Y-76815114D01*
X76440229Y-76815114D02*
X76511658Y-76672257D01*
X76511658Y-76672257D02*
X76654515Y-76600828D01*
X76654515Y-76600828D02*
X76797372Y-76600828D01*
X77297372Y-78100828D02*
X77297372Y-77100828D01*
X77297372Y-76600828D02*
X77225944Y-76672257D01*
X77225944Y-76672257D02*
X77297372Y-76743685D01*
X77297372Y-76743685D02*
X77368801Y-76672257D01*
X77368801Y-76672257D02*
X77297372Y-76600828D01*
X77297372Y-76600828D02*
X77297372Y-76743685D01*
X78225944Y-78100828D02*
X78083087Y-78029400D01*
X78083087Y-78029400D02*
X78011658Y-77886542D01*
X78011658Y-77886542D02*
X78011658Y-76600828D01*
X79368801Y-78029400D02*
X79225944Y-78100828D01*
X79225944Y-78100828D02*
X78940230Y-78100828D01*
X78940230Y-78100828D02*
X78797372Y-78029400D01*
X78797372Y-78029400D02*
X78725944Y-77886542D01*
X78725944Y-77886542D02*
X78725944Y-77315114D01*
X78725944Y-77315114D02*
X78797372Y-77172257D01*
X78797372Y-77172257D02*
X78940230Y-77100828D01*
X78940230Y-77100828D02*
X79225944Y-77100828D01*
X79225944Y-77100828D02*
X79368801Y-77172257D01*
X79368801Y-77172257D02*
X79440230Y-77315114D01*
X79440230Y-77315114D02*
X79440230Y-77457971D01*
X79440230Y-77457971D02*
X78725944Y-77600828D01*
X80011658Y-78029400D02*
X80154515Y-78100828D01*
X80154515Y-78100828D02*
X80440229Y-78100828D01*
X80440229Y-78100828D02*
X80583086Y-78029400D01*
X80583086Y-78029400D02*
X80654515Y-77886542D01*
X80654515Y-77886542D02*
X80654515Y-77815114D01*
X80654515Y-77815114D02*
X80583086Y-77672257D01*
X80583086Y-77672257D02*
X80440229Y-77600828D01*
X80440229Y-77600828D02*
X80225944Y-77600828D01*
X80225944Y-77600828D02*
X80083086Y-77529400D01*
X80083086Y-77529400D02*
X80011658Y-77386542D01*
X80011658Y-77386542D02*
X80011658Y-77315114D01*
X80011658Y-77315114D02*
X80083086Y-77172257D01*
X80083086Y-77172257D02*
X80225944Y-77100828D01*
X80225944Y-77100828D02*
X80440229Y-77100828D01*
X80440229Y-77100828D02*
X80583086Y-77172257D01*
X82368801Y-76529400D02*
X81083087Y-78457971D01*
X83511659Y-78100828D02*
X83511659Y-77315114D01*
X83511659Y-77315114D02*
X83440230Y-77172257D01*
X83440230Y-77172257D02*
X83297373Y-77100828D01*
X83297373Y-77100828D02*
X83011659Y-77100828D01*
X83011659Y-77100828D02*
X82868801Y-77172257D01*
X83511659Y-78029400D02*
X83368801Y-78100828D01*
X83368801Y-78100828D02*
X83011659Y-78100828D01*
X83011659Y-78100828D02*
X82868801Y-78029400D01*
X82868801Y-78029400D02*
X82797373Y-77886542D01*
X82797373Y-77886542D02*
X82797373Y-77743685D01*
X82797373Y-77743685D02*
X82868801Y-77600828D01*
X82868801Y-77600828D02*
X83011659Y-77529400D01*
X83011659Y-77529400D02*
X83368801Y-77529400D01*
X83368801Y-77529400D02*
X83511659Y-77457971D01*
X84011659Y-77100828D02*
X84583087Y-77100828D01*
X84225944Y-76600828D02*
X84225944Y-77886542D01*
X84225944Y-77886542D02*
X84297373Y-78029400D01*
X84297373Y-78029400D02*
X84440230Y-78100828D01*
X84440230Y-78100828D02*
X84583087Y-78100828D01*
X84868802Y-77100828D02*
X85440230Y-77100828D01*
X85083087Y-76600828D02*
X85083087Y-77886542D01*
X85083087Y-77886542D02*
X85154516Y-78029400D01*
X85154516Y-78029400D02*
X85297373Y-78100828D01*
X85297373Y-78100828D02*
X85440230Y-78100828D01*
X86511659Y-78029400D02*
X86368802Y-78100828D01*
X86368802Y-78100828D02*
X86083088Y-78100828D01*
X86083088Y-78100828D02*
X85940230Y-78029400D01*
X85940230Y-78029400D02*
X85868802Y-77886542D01*
X85868802Y-77886542D02*
X85868802Y-77315114D01*
X85868802Y-77315114D02*
X85940230Y-77172257D01*
X85940230Y-77172257D02*
X86083088Y-77100828D01*
X86083088Y-77100828D02*
X86368802Y-77100828D01*
X86368802Y-77100828D02*
X86511659Y-77172257D01*
X86511659Y-77172257D02*
X86583088Y-77315114D01*
X86583088Y-77315114D02*
X86583088Y-77457971D01*
X86583088Y-77457971D02*
X85868802Y-77600828D01*
X87225944Y-77100828D02*
X87225944Y-78100828D01*
X87225944Y-77243685D02*
X87297373Y-77172257D01*
X87297373Y-77172257D02*
X87440230Y-77100828D01*
X87440230Y-77100828D02*
X87654516Y-77100828D01*
X87654516Y-77100828D02*
X87797373Y-77172257D01*
X87797373Y-77172257D02*
X87868802Y-77315114D01*
X87868802Y-77315114D02*
X87868802Y-78100828D01*
X89225945Y-77100828D02*
X89225945Y-78100828D01*
X88583087Y-77100828D02*
X88583087Y-77886542D01*
X88583087Y-77886542D02*
X88654516Y-78029400D01*
X88654516Y-78029400D02*
X88797373Y-78100828D01*
X88797373Y-78100828D02*
X89011659Y-78100828D01*
X89011659Y-78100828D02*
X89154516Y-78029400D01*
X89154516Y-78029400D02*
X89225945Y-77957971D01*
X90583088Y-78100828D02*
X90583088Y-77315114D01*
X90583088Y-77315114D02*
X90511659Y-77172257D01*
X90511659Y-77172257D02*
X90368802Y-77100828D01*
X90368802Y-77100828D02*
X90083088Y-77100828D01*
X90083088Y-77100828D02*
X89940230Y-77172257D01*
X90583088Y-78029400D02*
X90440230Y-78100828D01*
X90440230Y-78100828D02*
X90083088Y-78100828D01*
X90083088Y-78100828D02*
X89940230Y-78029400D01*
X89940230Y-78029400D02*
X89868802Y-77886542D01*
X89868802Y-77886542D02*
X89868802Y-77743685D01*
X89868802Y-77743685D02*
X89940230Y-77600828D01*
X89940230Y-77600828D02*
X90083088Y-77529400D01*
X90083088Y-77529400D02*
X90440230Y-77529400D01*
X90440230Y-77529400D02*
X90583088Y-77457971D01*
X91083088Y-77100828D02*
X91654516Y-77100828D01*
X91297373Y-76600828D02*
X91297373Y-77886542D01*
X91297373Y-77886542D02*
X91368802Y-78029400D01*
X91368802Y-78029400D02*
X91511659Y-78100828D01*
X91511659Y-78100828D02*
X91654516Y-78100828D01*
X92368802Y-78100828D02*
X92225945Y-78029400D01*
X92225945Y-78029400D02*
X92154516Y-77957971D01*
X92154516Y-77957971D02*
X92083088Y-77815114D01*
X92083088Y-77815114D02*
X92083088Y-77386542D01*
X92083088Y-77386542D02*
X92154516Y-77243685D01*
X92154516Y-77243685D02*
X92225945Y-77172257D01*
X92225945Y-77172257D02*
X92368802Y-77100828D01*
X92368802Y-77100828D02*
X92583088Y-77100828D01*
X92583088Y-77100828D02*
X92725945Y-77172257D01*
X92725945Y-77172257D02*
X92797374Y-77243685D01*
X92797374Y-77243685D02*
X92868802Y-77386542D01*
X92868802Y-77386542D02*
X92868802Y-77815114D01*
X92868802Y-77815114D02*
X92797374Y-77957971D01*
X92797374Y-77957971D02*
X92725945Y-78029400D01*
X92725945Y-78029400D02*
X92583088Y-78100828D01*
X92583088Y-78100828D02*
X92368802Y-78100828D01*
X93511659Y-78100828D02*
X93511659Y-77100828D01*
X93511659Y-77386542D02*
X93583088Y-77243685D01*
X93583088Y-77243685D02*
X93654517Y-77172257D01*
X93654517Y-77172257D02*
X93797374Y-77100828D01*
X93797374Y-77100828D02*
X93940231Y-77100828D01*
X94083088Y-78243685D02*
X95225945Y-78243685D01*
X95583087Y-77100828D02*
X95583087Y-78600828D01*
X95583087Y-77172257D02*
X95725945Y-77100828D01*
X95725945Y-77100828D02*
X96011659Y-77100828D01*
X96011659Y-77100828D02*
X96154516Y-77172257D01*
X96154516Y-77172257D02*
X96225945Y-77243685D01*
X96225945Y-77243685D02*
X96297373Y-77386542D01*
X96297373Y-77386542D02*
X96297373Y-77815114D01*
X96297373Y-77815114D02*
X96225945Y-77957971D01*
X96225945Y-77957971D02*
X96154516Y-78029400D01*
X96154516Y-78029400D02*
X96011659Y-78100828D01*
X96011659Y-78100828D02*
X95725945Y-78100828D01*
X95725945Y-78100828D02*
X95583087Y-78029400D01*
X96940230Y-78100828D02*
X96940230Y-77100828D01*
X96940230Y-77386542D02*
X97011659Y-77243685D01*
X97011659Y-77243685D02*
X97083088Y-77172257D01*
X97083088Y-77172257D02*
X97225945Y-77100828D01*
X97225945Y-77100828D02*
X97368802Y-77100828D01*
X98083087Y-78100828D02*
X97940230Y-78029400D01*
X97940230Y-78029400D02*
X97868801Y-77957971D01*
X97868801Y-77957971D02*
X97797373Y-77815114D01*
X97797373Y-77815114D02*
X97797373Y-77386542D01*
X97797373Y-77386542D02*
X97868801Y-77243685D01*
X97868801Y-77243685D02*
X97940230Y-77172257D01*
X97940230Y-77172257D02*
X98083087Y-77100828D01*
X98083087Y-77100828D02*
X98297373Y-77100828D01*
X98297373Y-77100828D02*
X98440230Y-77172257D01*
X98440230Y-77172257D02*
X98511659Y-77243685D01*
X98511659Y-77243685D02*
X98583087Y-77386542D01*
X98583087Y-77386542D02*
X98583087Y-77815114D01*
X98583087Y-77815114D02*
X98511659Y-77957971D01*
X98511659Y-77957971D02*
X98440230Y-78029400D01*
X98440230Y-78029400D02*
X98297373Y-78100828D01*
X98297373Y-78100828D02*
X98083087Y-78100828D01*
X99225944Y-77100828D02*
X99225944Y-78386542D01*
X99225944Y-78386542D02*
X99154516Y-78529400D01*
X99154516Y-78529400D02*
X99011659Y-78600828D01*
X99011659Y-78600828D02*
X98940230Y-78600828D01*
X99225944Y-76600828D02*
X99154516Y-76672257D01*
X99154516Y-76672257D02*
X99225944Y-76743685D01*
X99225944Y-76743685D02*
X99297373Y-76672257D01*
X99297373Y-76672257D02*
X99225944Y-76600828D01*
X99225944Y-76600828D02*
X99225944Y-76743685D01*
X100511659Y-78029400D02*
X100368802Y-78100828D01*
X100368802Y-78100828D02*
X100083088Y-78100828D01*
X100083088Y-78100828D02*
X99940230Y-78029400D01*
X99940230Y-78029400D02*
X99868802Y-77886542D01*
X99868802Y-77886542D02*
X99868802Y-77315114D01*
X99868802Y-77315114D02*
X99940230Y-77172257D01*
X99940230Y-77172257D02*
X100083088Y-77100828D01*
X100083088Y-77100828D02*
X100368802Y-77100828D01*
X100368802Y-77100828D02*
X100511659Y-77172257D01*
X100511659Y-77172257D02*
X100583088Y-77315114D01*
X100583088Y-77315114D02*
X100583088Y-77457971D01*
X100583088Y-77457971D02*
X99868802Y-77600828D01*
X101868802Y-78029400D02*
X101725944Y-78100828D01*
X101725944Y-78100828D02*
X101440230Y-78100828D01*
X101440230Y-78100828D02*
X101297373Y-78029400D01*
X101297373Y-78029400D02*
X101225944Y-77957971D01*
X101225944Y-77957971D02*
X101154516Y-77815114D01*
X101154516Y-77815114D02*
X101154516Y-77386542D01*
X101154516Y-77386542D02*
X101225944Y-77243685D01*
X101225944Y-77243685D02*
X101297373Y-77172257D01*
X101297373Y-77172257D02*
X101440230Y-77100828D01*
X101440230Y-77100828D02*
X101725944Y-77100828D01*
X101725944Y-77100828D02*
X101868802Y-77172257D01*
X102297373Y-77100828D02*
X102868801Y-77100828D01*
X102511658Y-76600828D02*
X102511658Y-77886542D01*
X102511658Y-77886542D02*
X102583087Y-78029400D01*
X102583087Y-78029400D02*
X102725944Y-78100828D01*
X102725944Y-78100828D02*
X102868801Y-78100828D01*
X103011659Y-78243685D02*
X104154516Y-78243685D01*
X104440230Y-76743685D02*
X104511658Y-76672257D01*
X104511658Y-76672257D02*
X104654516Y-76600828D01*
X104654516Y-76600828D02*
X105011658Y-76600828D01*
X105011658Y-76600828D02*
X105154516Y-76672257D01*
X105154516Y-76672257D02*
X105225944Y-76743685D01*
X105225944Y-76743685D02*
X105297373Y-76886542D01*
X105297373Y-76886542D02*
X105297373Y-77029400D01*
X105297373Y-77029400D02*
X105225944Y-77243685D01*
X105225944Y-77243685D02*
X104368801Y-78100828D01*
X104368801Y-78100828D02*
X105297373Y-78100828D01*
X106225944Y-76600828D02*
X106368801Y-76600828D01*
X106368801Y-76600828D02*
X106511658Y-76672257D01*
X106511658Y-76672257D02*
X106583087Y-76743685D01*
X106583087Y-76743685D02*
X106654515Y-76886542D01*
X106654515Y-76886542D02*
X106725944Y-77172257D01*
X106725944Y-77172257D02*
X106725944Y-77529400D01*
X106725944Y-77529400D02*
X106654515Y-77815114D01*
X106654515Y-77815114D02*
X106583087Y-77957971D01*
X106583087Y-77957971D02*
X106511658Y-78029400D01*
X106511658Y-78029400D02*
X106368801Y-78100828D01*
X106368801Y-78100828D02*
X106225944Y-78100828D01*
X106225944Y-78100828D02*
X106083087Y-78029400D01*
X106083087Y-78029400D02*
X106011658Y-77957971D01*
X106011658Y-77957971D02*
X105940229Y-77815114D01*
X105940229Y-77815114D02*
X105868801Y-77529400D01*
X105868801Y-77529400D02*
X105868801Y-77172257D01*
X105868801Y-77172257D02*
X105940229Y-76886542D01*
X105940229Y-76886542D02*
X106011658Y-76743685D01*
X106011658Y-76743685D02*
X106083087Y-76672257D01*
X106083087Y-76672257D02*
X106225944Y-76600828D01*
X108154515Y-78100828D02*
X107297372Y-78100828D01*
X107725943Y-78100828D02*
X107725943Y-76600828D01*
X107725943Y-76600828D02*
X107583086Y-76815114D01*
X107583086Y-76815114D02*
X107440229Y-76957971D01*
X107440229Y-76957971D02*
X107297372Y-77029400D01*
X109083086Y-76600828D02*
X109225943Y-76600828D01*
X109225943Y-76600828D02*
X109368800Y-76672257D01*
X109368800Y-76672257D02*
X109440229Y-76743685D01*
X109440229Y-76743685D02*
X109511657Y-76886542D01*
X109511657Y-76886542D02*
X109583086Y-77172257D01*
X109583086Y-77172257D02*
X109583086Y-77529400D01*
X109583086Y-77529400D02*
X109511657Y-77815114D01*
X109511657Y-77815114D02*
X109440229Y-77957971D01*
X109440229Y-77957971D02*
X109368800Y-78029400D01*
X109368800Y-78029400D02*
X109225943Y-78100828D01*
X109225943Y-78100828D02*
X109083086Y-78100828D01*
X109083086Y-78100828D02*
X108940229Y-78029400D01*
X108940229Y-78029400D02*
X108868800Y-77957971D01*
X108868800Y-77957971D02*
X108797371Y-77815114D01*
X108797371Y-77815114D02*
X108725943Y-77529400D01*
X108725943Y-77529400D02*
X108725943Y-77172257D01*
X108725943Y-77172257D02*
X108797371Y-76886542D01*
X108797371Y-76886542D02*
X108868800Y-76743685D01*
X108868800Y-76743685D02*
X108940229Y-76672257D01*
X108940229Y-76672257D02*
X109083086Y-76600828D01*
X109868800Y-78243685D02*
X111011657Y-78243685D01*
X111368799Y-78100828D02*
X111368799Y-77100828D01*
X111368799Y-77243685D02*
X111440228Y-77172257D01*
X111440228Y-77172257D02*
X111583085Y-77100828D01*
X111583085Y-77100828D02*
X111797371Y-77100828D01*
X111797371Y-77100828D02*
X111940228Y-77172257D01*
X111940228Y-77172257D02*
X112011657Y-77315114D01*
X112011657Y-77315114D02*
X112011657Y-78100828D01*
X112011657Y-77315114D02*
X112083085Y-77172257D01*
X112083085Y-77172257D02*
X112225942Y-77100828D01*
X112225942Y-77100828D02*
X112440228Y-77100828D01*
X112440228Y-77100828D02*
X112583085Y-77172257D01*
X112583085Y-77172257D02*
X112654514Y-77315114D01*
X112654514Y-77315114D02*
X112654514Y-78100828D01*
X114011657Y-78100828D02*
X114011657Y-77315114D01*
X114011657Y-77315114D02*
X113940228Y-77172257D01*
X113940228Y-77172257D02*
X113797371Y-77100828D01*
X113797371Y-77100828D02*
X113511657Y-77100828D01*
X113511657Y-77100828D02*
X113368799Y-77172257D01*
X114011657Y-78029400D02*
X113868799Y-78100828D01*
X113868799Y-78100828D02*
X113511657Y-78100828D01*
X113511657Y-78100828D02*
X113368799Y-78029400D01*
X113368799Y-78029400D02*
X113297371Y-77886542D01*
X113297371Y-77886542D02*
X113297371Y-77743685D01*
X113297371Y-77743685D02*
X113368799Y-77600828D01*
X113368799Y-77600828D02*
X113511657Y-77529400D01*
X113511657Y-77529400D02*
X113868799Y-77529400D01*
X113868799Y-77529400D02*
X114011657Y-77457971D01*
X114583085Y-77100828D02*
X114940228Y-78100828D01*
X115297371Y-77100828D02*
X114940228Y-78100828D01*
X114940228Y-78100828D02*
X114797371Y-78457971D01*
X114797371Y-78457971D02*
X114725942Y-78529400D01*
X114725942Y-78529400D02*
X114583085Y-78600828D01*
X115868799Y-77957971D02*
X115940228Y-78029400D01*
X115940228Y-78029400D02*
X115868799Y-78100828D01*
X115868799Y-78100828D02*
X115797371Y-78029400D01*
X115797371Y-78029400D02*
X115868799Y-77957971D01*
X115868799Y-77957971D02*
X115868799Y-78100828D01*
X116583085Y-77100828D02*
X116583085Y-78600828D01*
X116583085Y-77172257D02*
X116725943Y-77100828D01*
X116725943Y-77100828D02*
X117011657Y-77100828D01*
X117011657Y-77100828D02*
X117154514Y-77172257D01*
X117154514Y-77172257D02*
X117225943Y-77243685D01*
X117225943Y-77243685D02*
X117297371Y-77386542D01*
X117297371Y-77386542D02*
X117297371Y-77815114D01*
X117297371Y-77815114D02*
X117225943Y-77957971D01*
X117225943Y-77957971D02*
X117154514Y-78029400D01*
X117154514Y-78029400D02*
X117011657Y-78100828D01*
X117011657Y-78100828D02*
X116725943Y-78100828D01*
X116725943Y-78100828D02*
X116583085Y-78029400D01*
X118583086Y-78100828D02*
X118583086Y-76600828D01*
X118583086Y-78029400D02*
X118440228Y-78100828D01*
X118440228Y-78100828D02*
X118154514Y-78100828D01*
X118154514Y-78100828D02*
X118011657Y-78029400D01*
X118011657Y-78029400D02*
X117940228Y-77957971D01*
X117940228Y-77957971D02*
X117868800Y-77815114D01*
X117868800Y-77815114D02*
X117868800Y-77386542D01*
X117868800Y-77386542D02*
X117940228Y-77243685D01*
X117940228Y-77243685D02*
X118011657Y-77172257D01*
X118011657Y-77172257D02*
X118154514Y-77100828D01*
X118154514Y-77100828D02*
X118440228Y-77100828D01*
X118440228Y-77100828D02*
X118583086Y-77172257D01*
X119083086Y-77100828D02*
X119654514Y-77100828D01*
X119297371Y-78100828D02*
X119297371Y-76815114D01*
X119297371Y-76815114D02*
X119368800Y-76672257D01*
X119368800Y-76672257D02*
X119511657Y-76600828D01*
X119511657Y-76600828D02*
X119654514Y-76600828D01*
X65254510Y-23015114D02*
X64754510Y-23015114D01*
X64754510Y-23800828D02*
X64754510Y-22300828D01*
X64754510Y-22300828D02*
X65468796Y-22300828D01*
X66254510Y-23800828D02*
X66111653Y-23729400D01*
X66111653Y-23729400D02*
X66040224Y-23657971D01*
X66040224Y-23657971D02*
X65968796Y-23515114D01*
X65968796Y-23515114D02*
X65968796Y-23086542D01*
X65968796Y-23086542D02*
X66040224Y-22943685D01*
X66040224Y-22943685D02*
X66111653Y-22872257D01*
X66111653Y-22872257D02*
X66254510Y-22800828D01*
X66254510Y-22800828D02*
X66468796Y-22800828D01*
X66468796Y-22800828D02*
X66611653Y-22872257D01*
X66611653Y-22872257D02*
X66683082Y-22943685D01*
X66683082Y-22943685D02*
X66754510Y-23086542D01*
X66754510Y-23086542D02*
X66754510Y-23515114D01*
X66754510Y-23515114D02*
X66683082Y-23657971D01*
X66683082Y-23657971D02*
X66611653Y-23729400D01*
X66611653Y-23729400D02*
X66468796Y-23800828D01*
X66468796Y-23800828D02*
X66254510Y-23800828D01*
X67254510Y-23800828D02*
X68040225Y-22800828D01*
X67254510Y-22800828D02*
X68040225Y-23800828D01*
X68611653Y-23800828D02*
X68611653Y-22300828D01*
X68611653Y-23015114D02*
X69468796Y-23015114D01*
X69468796Y-23800828D02*
X69468796Y-22300828D01*
X70825940Y-22800828D02*
X70825940Y-23800828D01*
X70183082Y-22800828D02*
X70183082Y-23586542D01*
X70183082Y-23586542D02*
X70254511Y-23729400D01*
X70254511Y-23729400D02*
X70397368Y-23800828D01*
X70397368Y-23800828D02*
X70611654Y-23800828D01*
X70611654Y-23800828D02*
X70754511Y-23729400D01*
X70754511Y-23729400D02*
X70825940Y-23657971D01*
X71540225Y-22800828D02*
X71540225Y-23800828D01*
X71540225Y-22943685D02*
X71611654Y-22872257D01*
X71611654Y-22872257D02*
X71754511Y-22800828D01*
X71754511Y-22800828D02*
X71968797Y-22800828D01*
X71968797Y-22800828D02*
X72111654Y-22872257D01*
X72111654Y-22872257D02*
X72183083Y-23015114D01*
X72183083Y-23015114D02*
X72183083Y-23800828D01*
X72683083Y-22800828D02*
X73254511Y-22800828D01*
X72897368Y-22300828D02*
X72897368Y-23586542D01*
X72897368Y-23586542D02*
X72968797Y-23729400D01*
X72968797Y-23729400D02*
X73111654Y-23800828D01*
X73111654Y-23800828D02*
X73254511Y-23800828D01*
X75183083Y-22300828D02*
X75468797Y-22300828D01*
X75468797Y-22300828D02*
X75611654Y-22372257D01*
X75611654Y-22372257D02*
X75754511Y-22515114D01*
X75754511Y-22515114D02*
X75825940Y-22800828D01*
X75825940Y-22800828D02*
X75825940Y-23300828D01*
X75825940Y-23300828D02*
X75754511Y-23586542D01*
X75754511Y-23586542D02*
X75611654Y-23729400D01*
X75611654Y-23729400D02*
X75468797Y-23800828D01*
X75468797Y-23800828D02*
X75183083Y-23800828D01*
X75183083Y-23800828D02*
X75040226Y-23729400D01*
X75040226Y-23729400D02*
X74897368Y-23586542D01*
X74897368Y-23586542D02*
X74825940Y-23300828D01*
X74825940Y-23300828D02*
X74825940Y-22800828D01*
X74825940Y-22800828D02*
X74897368Y-22515114D01*
X74897368Y-22515114D02*
X75040226Y-22372257D01*
X75040226Y-22372257D02*
X75183083Y-22300828D01*
X76254512Y-22800828D02*
X76825940Y-22800828D01*
X76468797Y-23800828D02*
X76468797Y-22515114D01*
X76468797Y-22515114D02*
X76540226Y-22372257D01*
X76540226Y-22372257D02*
X76683083Y-22300828D01*
X76683083Y-22300828D02*
X76825940Y-22300828D01*
X77111655Y-22800828D02*
X77683083Y-22800828D01*
X77325940Y-23800828D02*
X77325940Y-22515114D01*
X77325940Y-22515114D02*
X77397369Y-22372257D01*
X77397369Y-22372257D02*
X77540226Y-22300828D01*
X77540226Y-22300828D02*
X77683083Y-22300828D01*
X78111655Y-23729400D02*
X78254512Y-23800828D01*
X78254512Y-23800828D02*
X78540226Y-23800828D01*
X78540226Y-23800828D02*
X78683083Y-23729400D01*
X78683083Y-23729400D02*
X78754512Y-23586542D01*
X78754512Y-23586542D02*
X78754512Y-23515114D01*
X78754512Y-23515114D02*
X78683083Y-23372257D01*
X78683083Y-23372257D02*
X78540226Y-23300828D01*
X78540226Y-23300828D02*
X78325941Y-23300828D01*
X78325941Y-23300828D02*
X78183083Y-23229400D01*
X78183083Y-23229400D02*
X78111655Y-23086542D01*
X78111655Y-23086542D02*
X78111655Y-23015114D01*
X78111655Y-23015114D02*
X78183083Y-22872257D01*
X78183083Y-22872257D02*
X78325941Y-22800828D01*
X78325941Y-22800828D02*
X78540226Y-22800828D01*
X78540226Y-22800828D02*
X78683083Y-22872257D01*
X79968798Y-23729400D02*
X79825941Y-23800828D01*
X79825941Y-23800828D02*
X79540227Y-23800828D01*
X79540227Y-23800828D02*
X79397369Y-23729400D01*
X79397369Y-23729400D02*
X79325941Y-23586542D01*
X79325941Y-23586542D02*
X79325941Y-23015114D01*
X79325941Y-23015114D02*
X79397369Y-22872257D01*
X79397369Y-22872257D02*
X79540227Y-22800828D01*
X79540227Y-22800828D02*
X79825941Y-22800828D01*
X79825941Y-22800828D02*
X79968798Y-22872257D01*
X79968798Y-22872257D02*
X80040227Y-23015114D01*
X80040227Y-23015114D02*
X80040227Y-23157971D01*
X80040227Y-23157971D02*
X79325941Y-23300828D01*
X80468798Y-22800828D02*
X81040226Y-22800828D01*
X80683083Y-22300828D02*
X80683083Y-23586542D01*
X80683083Y-23586542D02*
X80754512Y-23729400D01*
X80754512Y-23729400D02*
X80897369Y-23800828D01*
X80897369Y-23800828D02*
X81040226Y-23800828D01*
X82611655Y-23372257D02*
X83325941Y-23372257D01*
X82468798Y-23800828D02*
X82968798Y-22300828D01*
X82968798Y-22300828D02*
X83468798Y-23800828D01*
X83754512Y-22800828D02*
X84325940Y-22800828D01*
X83968797Y-22300828D02*
X83968797Y-23586542D01*
X83968797Y-23586542D02*
X84040226Y-23729400D01*
X84040226Y-23729400D02*
X84183083Y-23800828D01*
X84183083Y-23800828D02*
X84325940Y-23800828D01*
X84611655Y-22800828D02*
X85183083Y-22800828D01*
X84825940Y-22300828D02*
X84825940Y-23586542D01*
X84825940Y-23586542D02*
X84897369Y-23729400D01*
X84897369Y-23729400D02*
X85040226Y-23800828D01*
X85040226Y-23800828D02*
X85183083Y-23800828D01*
X86254512Y-23729400D02*
X86111655Y-23800828D01*
X86111655Y-23800828D02*
X85825941Y-23800828D01*
X85825941Y-23800828D02*
X85683083Y-23729400D01*
X85683083Y-23729400D02*
X85611655Y-23586542D01*
X85611655Y-23586542D02*
X85611655Y-23015114D01*
X85611655Y-23015114D02*
X85683083Y-22872257D01*
X85683083Y-22872257D02*
X85825941Y-22800828D01*
X85825941Y-22800828D02*
X86111655Y-22800828D01*
X86111655Y-22800828D02*
X86254512Y-22872257D01*
X86254512Y-22872257D02*
X86325941Y-23015114D01*
X86325941Y-23015114D02*
X86325941Y-23157971D01*
X86325941Y-23157971D02*
X85611655Y-23300828D01*
X86968797Y-22800828D02*
X86968797Y-23800828D01*
X86968797Y-22943685D02*
X87040226Y-22872257D01*
X87040226Y-22872257D02*
X87183083Y-22800828D01*
X87183083Y-22800828D02*
X87397369Y-22800828D01*
X87397369Y-22800828D02*
X87540226Y-22872257D01*
X87540226Y-22872257D02*
X87611655Y-23015114D01*
X87611655Y-23015114D02*
X87611655Y-23800828D01*
X88968798Y-22800828D02*
X88968798Y-23800828D01*
X88325940Y-22800828D02*
X88325940Y-23586542D01*
X88325940Y-23586542D02*
X88397369Y-23729400D01*
X88397369Y-23729400D02*
X88540226Y-23800828D01*
X88540226Y-23800828D02*
X88754512Y-23800828D01*
X88754512Y-23800828D02*
X88897369Y-23729400D01*
X88897369Y-23729400D02*
X88968798Y-23657971D01*
X90325941Y-23800828D02*
X90325941Y-23015114D01*
X90325941Y-23015114D02*
X90254512Y-22872257D01*
X90254512Y-22872257D02*
X90111655Y-22800828D01*
X90111655Y-22800828D02*
X89825941Y-22800828D01*
X89825941Y-22800828D02*
X89683083Y-22872257D01*
X90325941Y-23729400D02*
X90183083Y-23800828D01*
X90183083Y-23800828D02*
X89825941Y-23800828D01*
X89825941Y-23800828D02*
X89683083Y-23729400D01*
X89683083Y-23729400D02*
X89611655Y-23586542D01*
X89611655Y-23586542D02*
X89611655Y-23443685D01*
X89611655Y-23443685D02*
X89683083Y-23300828D01*
X89683083Y-23300828D02*
X89825941Y-23229400D01*
X89825941Y-23229400D02*
X90183083Y-23229400D01*
X90183083Y-23229400D02*
X90325941Y-23157971D01*
X90825941Y-22800828D02*
X91397369Y-22800828D01*
X91040226Y-22300828D02*
X91040226Y-23586542D01*
X91040226Y-23586542D02*
X91111655Y-23729400D01*
X91111655Y-23729400D02*
X91254512Y-23800828D01*
X91254512Y-23800828D02*
X91397369Y-23800828D01*
X92111655Y-23800828D02*
X91968798Y-23729400D01*
X91968798Y-23729400D02*
X91897369Y-23657971D01*
X91897369Y-23657971D02*
X91825941Y-23515114D01*
X91825941Y-23515114D02*
X91825941Y-23086542D01*
X91825941Y-23086542D02*
X91897369Y-22943685D01*
X91897369Y-22943685D02*
X91968798Y-22872257D01*
X91968798Y-22872257D02*
X92111655Y-22800828D01*
X92111655Y-22800828D02*
X92325941Y-22800828D01*
X92325941Y-22800828D02*
X92468798Y-22872257D01*
X92468798Y-22872257D02*
X92540227Y-22943685D01*
X92540227Y-22943685D02*
X92611655Y-23086542D01*
X92611655Y-23086542D02*
X92611655Y-23515114D01*
X92611655Y-23515114D02*
X92540227Y-23657971D01*
X92540227Y-23657971D02*
X92468798Y-23729400D01*
X92468798Y-23729400D02*
X92325941Y-23800828D01*
X92325941Y-23800828D02*
X92111655Y-23800828D01*
X93254512Y-23800828D02*
X93254512Y-22800828D01*
X93254512Y-23086542D02*
X93325941Y-22943685D01*
X93325941Y-22943685D02*
X93397370Y-22872257D01*
X93397370Y-22872257D02*
X93540227Y-22800828D01*
X93540227Y-22800828D02*
X93683084Y-22800828D01*
D12*
X92331807Y-42973157D02*
X92331807Y-43641350D01*
X91864072Y-42238145D02*
X92331807Y-42973157D01*
X92331807Y-42973157D02*
X92799542Y-42238145D01*
X94002289Y-43641350D02*
X93200458Y-43641350D01*
X93601373Y-43641350D02*
X93601373Y-42238145D01*
X93601373Y-42238145D02*
X93467735Y-42438603D01*
X93467735Y-42438603D02*
X93334096Y-42572241D01*
X93334096Y-42572241D02*
X93200458Y-42639061D01*
D10*
X51566667Y-41409800D02*
X51709524Y-41457419D01*
X51709524Y-41457419D02*
X51947619Y-41457419D01*
X51947619Y-41457419D02*
X52042857Y-41409800D01*
X52042857Y-41409800D02*
X52090476Y-41362180D01*
X52090476Y-41362180D02*
X52138095Y-41266942D01*
X52138095Y-41266942D02*
X52138095Y-41171704D01*
X52138095Y-41171704D02*
X52090476Y-41076466D01*
X52090476Y-41076466D02*
X52042857Y-41028847D01*
X52042857Y-41028847D02*
X51947619Y-40981228D01*
X51947619Y-40981228D02*
X51757143Y-40933609D01*
X51757143Y-40933609D02*
X51661905Y-40885990D01*
X51661905Y-40885990D02*
X51614286Y-40838371D01*
X51614286Y-40838371D02*
X51566667Y-40743133D01*
X51566667Y-40743133D02*
X51566667Y-40647895D01*
X51566667Y-40647895D02*
X51614286Y-40552657D01*
X51614286Y-40552657D02*
X51661905Y-40505038D01*
X51661905Y-40505038D02*
X51757143Y-40457419D01*
X51757143Y-40457419D02*
X51995238Y-40457419D01*
X51995238Y-40457419D02*
X52138095Y-40505038D01*
X52471429Y-40457419D02*
X52709524Y-41457419D01*
X52709524Y-41457419D02*
X52900000Y-40743133D01*
X52900000Y-40743133D02*
X53090476Y-41457419D01*
X53090476Y-41457419D02*
X53328572Y-40457419D01*
X53661905Y-40552657D02*
X53709524Y-40505038D01*
X53709524Y-40505038D02*
X53804762Y-40457419D01*
X53804762Y-40457419D02*
X54042857Y-40457419D01*
X54042857Y-40457419D02*
X54138095Y-40505038D01*
X54138095Y-40505038D02*
X54185714Y-40552657D01*
X54185714Y-40552657D02*
X54233333Y-40647895D01*
X54233333Y-40647895D02*
X54233333Y-40743133D01*
X54233333Y-40743133D02*
X54185714Y-40885990D01*
X54185714Y-40885990D02*
X53614286Y-41457419D01*
X53614286Y-41457419D02*
X54233333Y-41457419D01*
X56294360Y-48852419D02*
X56484836Y-48852419D01*
X56484836Y-48852419D02*
X56580074Y-48900038D01*
X56580074Y-48900038D02*
X56675312Y-48995276D01*
X56675312Y-48995276D02*
X56722931Y-49185752D01*
X56722931Y-49185752D02*
X56722931Y-49519085D01*
X56722931Y-49519085D02*
X56675312Y-49709561D01*
X56675312Y-49709561D02*
X56580074Y-49804800D01*
X56580074Y-49804800D02*
X56484836Y-49852419D01*
X56484836Y-49852419D02*
X56294360Y-49852419D01*
X56294360Y-49852419D02*
X56199122Y-49804800D01*
X56199122Y-49804800D02*
X56103884Y-49709561D01*
X56103884Y-49709561D02*
X56056265Y-49519085D01*
X56056265Y-49519085D02*
X56056265Y-49185752D01*
X56056265Y-49185752D02*
X56103884Y-48995276D01*
X56103884Y-48995276D02*
X56199122Y-48900038D01*
X56199122Y-48900038D02*
X56294360Y-48852419D01*
X57151503Y-49852419D02*
X57151503Y-48852419D01*
X57151503Y-48852419D02*
X57722931Y-49852419D01*
X57722931Y-49852419D02*
X57722931Y-48852419D01*
X56304360Y-43762419D02*
X56494836Y-43762419D01*
X56494836Y-43762419D02*
X56590074Y-43810038D01*
X56590074Y-43810038D02*
X56685312Y-43905276D01*
X56685312Y-43905276D02*
X56732931Y-44095752D01*
X56732931Y-44095752D02*
X56732931Y-44429085D01*
X56732931Y-44429085D02*
X56685312Y-44619561D01*
X56685312Y-44619561D02*
X56590074Y-44714800D01*
X56590074Y-44714800D02*
X56494836Y-44762419D01*
X56494836Y-44762419D02*
X56304360Y-44762419D01*
X56304360Y-44762419D02*
X56209122Y-44714800D01*
X56209122Y-44714800D02*
X56113884Y-44619561D01*
X56113884Y-44619561D02*
X56066265Y-44429085D01*
X56066265Y-44429085D02*
X56066265Y-44095752D01*
X56066265Y-44095752D02*
X56113884Y-43905276D01*
X56113884Y-43905276D02*
X56209122Y-43810038D01*
X56209122Y-43810038D02*
X56304360Y-43762419D01*
X57494836Y-44238609D02*
X57161503Y-44238609D01*
X57161503Y-44762419D02*
X57161503Y-43762419D01*
X57161503Y-43762419D02*
X57637693Y-43762419D01*
X58351979Y-44238609D02*
X58018646Y-44238609D01*
X58018646Y-44762419D02*
X58018646Y-43762419D01*
X58018646Y-43762419D02*
X58494836Y-43762419D01*
D12*
X60833333Y-45454819D02*
X60500000Y-44978628D01*
X60261905Y-45454819D02*
X60261905Y-44454819D01*
X60261905Y-44454819D02*
X60642857Y-44454819D01*
X60642857Y-44454819D02*
X60738095Y-44502438D01*
X60738095Y-44502438D02*
X60785714Y-44550057D01*
X60785714Y-44550057D02*
X60833333Y-44645295D01*
X60833333Y-44645295D02*
X60833333Y-44788152D01*
X60833333Y-44788152D02*
X60785714Y-44883390D01*
X60785714Y-44883390D02*
X60738095Y-44931009D01*
X60738095Y-44931009D02*
X60642857Y-44978628D01*
X60642857Y-44978628D02*
X60261905Y-44978628D01*
X61690476Y-44788152D02*
X61690476Y-45454819D01*
X61452381Y-44407200D02*
X61214286Y-45121485D01*
X61214286Y-45121485D02*
X61833333Y-45121485D01*
X52933333Y-29859580D02*
X52885714Y-29907200D01*
X52885714Y-29907200D02*
X52742857Y-29954819D01*
X52742857Y-29954819D02*
X52647619Y-29954819D01*
X52647619Y-29954819D02*
X52504762Y-29907200D01*
X52504762Y-29907200D02*
X52409524Y-29811961D01*
X52409524Y-29811961D02*
X52361905Y-29716723D01*
X52361905Y-29716723D02*
X52314286Y-29526247D01*
X52314286Y-29526247D02*
X52314286Y-29383390D01*
X52314286Y-29383390D02*
X52361905Y-29192914D01*
X52361905Y-29192914D02*
X52409524Y-29097676D01*
X52409524Y-29097676D02*
X52504762Y-29002438D01*
X52504762Y-29002438D02*
X52647619Y-28954819D01*
X52647619Y-28954819D02*
X52742857Y-28954819D01*
X52742857Y-28954819D02*
X52885714Y-29002438D01*
X52885714Y-29002438D02*
X52933333Y-29050057D01*
X53885714Y-29954819D02*
X53314286Y-29954819D01*
X53600000Y-29954819D02*
X53600000Y-28954819D01*
X53600000Y-28954819D02*
X53504762Y-29097676D01*
X53504762Y-29097676D02*
X53409524Y-29192914D01*
X53409524Y-29192914D02*
X53314286Y-29240533D01*
D10*
X116571666Y-41457419D02*
X116571666Y-42171704D01*
X116571666Y-42171704D02*
X116524047Y-42314561D01*
X116524047Y-42314561D02*
X116428809Y-42409800D01*
X116428809Y-42409800D02*
X116285952Y-42457419D01*
X116285952Y-42457419D02*
X116190714Y-42457419D01*
X117000238Y-41552657D02*
X117047857Y-41505038D01*
X117047857Y-41505038D02*
X117143095Y-41457419D01*
X117143095Y-41457419D02*
X117381190Y-41457419D01*
X117381190Y-41457419D02*
X117476428Y-41505038D01*
X117476428Y-41505038D02*
X117524047Y-41552657D01*
X117524047Y-41552657D02*
X117571666Y-41647895D01*
X117571666Y-41647895D02*
X117571666Y-41743133D01*
X117571666Y-41743133D02*
X117524047Y-41885990D01*
X117524047Y-41885990D02*
X116952619Y-42457419D01*
X116952619Y-42457419D02*
X117571666Y-42457419D01*
D12*
X80238095Y-43954819D02*
X80238095Y-44764342D01*
X80238095Y-44764342D02*
X80285714Y-44859580D01*
X80285714Y-44859580D02*
X80333333Y-44907200D01*
X80333333Y-44907200D02*
X80428571Y-44954819D01*
X80428571Y-44954819D02*
X80619047Y-44954819D01*
X80619047Y-44954819D02*
X80714285Y-44907200D01*
X80714285Y-44907200D02*
X80761904Y-44859580D01*
X80761904Y-44859580D02*
X80809523Y-44764342D01*
X80809523Y-44764342D02*
X80809523Y-43954819D01*
X81809523Y-44954819D02*
X81238095Y-44954819D01*
X81523809Y-44954819D02*
X81523809Y-43954819D01*
X81523809Y-43954819D02*
X81428571Y-44097676D01*
X81428571Y-44097676D02*
X81333333Y-44192914D01*
X81333333Y-44192914D02*
X81238095Y-44240533D01*
X81083333Y-58359580D02*
X81035714Y-58407200D01*
X81035714Y-58407200D02*
X80892857Y-58454819D01*
X80892857Y-58454819D02*
X80797619Y-58454819D01*
X80797619Y-58454819D02*
X80654762Y-58407200D01*
X80654762Y-58407200D02*
X80559524Y-58311961D01*
X80559524Y-58311961D02*
X80511905Y-58216723D01*
X80511905Y-58216723D02*
X80464286Y-58026247D01*
X80464286Y-58026247D02*
X80464286Y-57883390D01*
X80464286Y-57883390D02*
X80511905Y-57692914D01*
X80511905Y-57692914D02*
X80559524Y-57597676D01*
X80559524Y-57597676D02*
X80654762Y-57502438D01*
X80654762Y-57502438D02*
X80797619Y-57454819D01*
X80797619Y-57454819D02*
X80892857Y-57454819D01*
X80892857Y-57454819D02*
X81035714Y-57502438D01*
X81035714Y-57502438D02*
X81083333Y-57550057D01*
X81416667Y-57454819D02*
X82035714Y-57454819D01*
X82035714Y-57454819D02*
X81702381Y-57835771D01*
X81702381Y-57835771D02*
X81845238Y-57835771D01*
X81845238Y-57835771D02*
X81940476Y-57883390D01*
X81940476Y-57883390D02*
X81988095Y-57931009D01*
X81988095Y-57931009D02*
X82035714Y-58026247D01*
X82035714Y-58026247D02*
X82035714Y-58264342D01*
X82035714Y-58264342D02*
X81988095Y-58359580D01*
X81988095Y-58359580D02*
X81940476Y-58407200D01*
X81940476Y-58407200D02*
X81845238Y-58454819D01*
X81845238Y-58454819D02*
X81559524Y-58454819D01*
X81559524Y-58454819D02*
X81464286Y-58407200D01*
X81464286Y-58407200D02*
X81416667Y-58359580D01*
D10*
X39261666Y-41957419D02*
X39261666Y-42671704D01*
X39261666Y-42671704D02*
X39214047Y-42814561D01*
X39214047Y-42814561D02*
X39118809Y-42909800D01*
X39118809Y-42909800D02*
X38975952Y-42957419D01*
X38975952Y-42957419D02*
X38880714Y-42957419D01*
X40261666Y-42957419D02*
X39690238Y-42957419D01*
X39975952Y-42957419D02*
X39975952Y-41957419D01*
X39975952Y-41957419D02*
X39880714Y-42100276D01*
X39880714Y-42100276D02*
X39785476Y-42195514D01*
X39785476Y-42195514D02*
X39690238Y-42243133D01*
D12*
X69904317Y-45455165D02*
X69570734Y-44978619D01*
X69332461Y-45455165D02*
X69332461Y-44454417D01*
X69332461Y-44454417D02*
X69713698Y-44454417D01*
X69713698Y-44454417D02*
X69809008Y-44502072D01*
X69809008Y-44502072D02*
X69856662Y-44549727D01*
X69856662Y-44549727D02*
X69904317Y-44645036D01*
X69904317Y-44645036D02*
X69904317Y-44788000D01*
X69904317Y-44788000D02*
X69856662Y-44883309D01*
X69856662Y-44883309D02*
X69809008Y-44930964D01*
X69809008Y-44930964D02*
X69713698Y-44978619D01*
X69713698Y-44978619D02*
X69332461Y-44978619D01*
X70190245Y-44454417D02*
X70523828Y-45455165D01*
X70523828Y-45455165D02*
X70857410Y-44454417D01*
X71715194Y-45455165D02*
X71143338Y-45455165D01*
X71429266Y-45455165D02*
X71429266Y-44454417D01*
X71429266Y-44454417D02*
X71333957Y-44597381D01*
X71333957Y-44597381D02*
X71238648Y-44692691D01*
X71238648Y-44692691D02*
X71143338Y-44740345D01*
X80733333Y-25954819D02*
X80400000Y-25478628D01*
X80161905Y-25954819D02*
X80161905Y-24954819D01*
X80161905Y-24954819D02*
X80542857Y-24954819D01*
X80542857Y-24954819D02*
X80638095Y-25002438D01*
X80638095Y-25002438D02*
X80685714Y-25050057D01*
X80685714Y-25050057D02*
X80733333Y-25145295D01*
X80733333Y-25145295D02*
X80733333Y-25288152D01*
X80733333Y-25288152D02*
X80685714Y-25383390D01*
X80685714Y-25383390D02*
X80638095Y-25431009D01*
X80638095Y-25431009D02*
X80542857Y-25478628D01*
X80542857Y-25478628D02*
X80161905Y-25478628D01*
X81066667Y-24954819D02*
X81685714Y-24954819D01*
X81685714Y-24954819D02*
X81352381Y-25335771D01*
X81352381Y-25335771D02*
X81495238Y-25335771D01*
X81495238Y-25335771D02*
X81590476Y-25383390D01*
X81590476Y-25383390D02*
X81638095Y-25431009D01*
X81638095Y-25431009D02*
X81685714Y-25526247D01*
X81685714Y-25526247D02*
X81685714Y-25764342D01*
X81685714Y-25764342D02*
X81638095Y-25859580D01*
X81638095Y-25859580D02*
X81590476Y-25907200D01*
X81590476Y-25907200D02*
X81495238Y-25954819D01*
X81495238Y-25954819D02*
X81209524Y-25954819D01*
X81209524Y-25954819D02*
X81114286Y-25907200D01*
X81114286Y-25907200D02*
X81066667Y-25859580D01*
X60833333Y-25954819D02*
X60500000Y-25478628D01*
X60261905Y-25954819D02*
X60261905Y-24954819D01*
X60261905Y-24954819D02*
X60642857Y-24954819D01*
X60642857Y-24954819D02*
X60738095Y-25002438D01*
X60738095Y-25002438D02*
X60785714Y-25050057D01*
X60785714Y-25050057D02*
X60833333Y-25145295D01*
X60833333Y-25145295D02*
X60833333Y-25288152D01*
X60833333Y-25288152D02*
X60785714Y-25383390D01*
X60785714Y-25383390D02*
X60738095Y-25431009D01*
X60738095Y-25431009D02*
X60642857Y-25478628D01*
X60642857Y-25478628D02*
X60261905Y-25478628D01*
X61785714Y-25954819D02*
X61214286Y-25954819D01*
X61500000Y-25954819D02*
X61500000Y-24954819D01*
X61500000Y-24954819D02*
X61404762Y-25097676D01*
X61404762Y-25097676D02*
X61309524Y-25192914D01*
X61309524Y-25192914D02*
X61214286Y-25240533D01*
X104833333Y-42954819D02*
X104500000Y-42478628D01*
X104261905Y-42954819D02*
X104261905Y-41954819D01*
X104261905Y-41954819D02*
X104642857Y-41954819D01*
X104642857Y-41954819D02*
X104738095Y-42002438D01*
X104738095Y-42002438D02*
X104785714Y-42050057D01*
X104785714Y-42050057D02*
X104833333Y-42145295D01*
X104833333Y-42145295D02*
X104833333Y-42288152D01*
X104833333Y-42288152D02*
X104785714Y-42383390D01*
X104785714Y-42383390D02*
X104738095Y-42431009D01*
X104738095Y-42431009D02*
X104642857Y-42478628D01*
X104642857Y-42478628D02*
X104261905Y-42478628D01*
X105738095Y-41954819D02*
X105261905Y-41954819D01*
X105261905Y-41954819D02*
X105214286Y-42431009D01*
X105214286Y-42431009D02*
X105261905Y-42383390D01*
X105261905Y-42383390D02*
X105357143Y-42335771D01*
X105357143Y-42335771D02*
X105595238Y-42335771D01*
X105595238Y-42335771D02*
X105690476Y-42383390D01*
X105690476Y-42383390D02*
X105738095Y-42431009D01*
X105738095Y-42431009D02*
X105785714Y-42526247D01*
X105785714Y-42526247D02*
X105785714Y-42764342D01*
X105785714Y-42764342D02*
X105738095Y-42859580D01*
X105738095Y-42859580D02*
X105690476Y-42907200D01*
X105690476Y-42907200D02*
X105595238Y-42954819D01*
X105595238Y-42954819D02*
X105357143Y-42954819D01*
X105357143Y-42954819D02*
X105261905Y-42907200D01*
X105261905Y-42907200D02*
X105214286Y-42859580D01*
D10*
X51666667Y-62409800D02*
X51809524Y-62457419D01*
X51809524Y-62457419D02*
X52047619Y-62457419D01*
X52047619Y-62457419D02*
X52142857Y-62409800D01*
X52142857Y-62409800D02*
X52190476Y-62362180D01*
X52190476Y-62362180D02*
X52238095Y-62266942D01*
X52238095Y-62266942D02*
X52238095Y-62171704D01*
X52238095Y-62171704D02*
X52190476Y-62076466D01*
X52190476Y-62076466D02*
X52142857Y-62028847D01*
X52142857Y-62028847D02*
X52047619Y-61981228D01*
X52047619Y-61981228D02*
X51857143Y-61933609D01*
X51857143Y-61933609D02*
X51761905Y-61885990D01*
X51761905Y-61885990D02*
X51714286Y-61838371D01*
X51714286Y-61838371D02*
X51666667Y-61743133D01*
X51666667Y-61743133D02*
X51666667Y-61647895D01*
X51666667Y-61647895D02*
X51714286Y-61552657D01*
X51714286Y-61552657D02*
X51761905Y-61505038D01*
X51761905Y-61505038D02*
X51857143Y-61457419D01*
X51857143Y-61457419D02*
X52095238Y-61457419D01*
X52095238Y-61457419D02*
X52238095Y-61505038D01*
X52571429Y-61457419D02*
X52809524Y-62457419D01*
X52809524Y-62457419D02*
X53000000Y-61743133D01*
X53000000Y-61743133D02*
X53190476Y-62457419D01*
X53190476Y-62457419D02*
X53428572Y-61457419D01*
X54333333Y-62457419D02*
X53761905Y-62457419D01*
X54047619Y-62457419D02*
X54047619Y-61457419D01*
X54047619Y-61457419D02*
X53952381Y-61600276D01*
X53952381Y-61600276D02*
X53857143Y-61695514D01*
X53857143Y-61695514D02*
X53761905Y-61743133D01*
X56294360Y-53362419D02*
X56484836Y-53362419D01*
X56484836Y-53362419D02*
X56580074Y-53410038D01*
X56580074Y-53410038D02*
X56675312Y-53505276D01*
X56675312Y-53505276D02*
X56722931Y-53695752D01*
X56722931Y-53695752D02*
X56722931Y-54029085D01*
X56722931Y-54029085D02*
X56675312Y-54219561D01*
X56675312Y-54219561D02*
X56580074Y-54314800D01*
X56580074Y-54314800D02*
X56484836Y-54362419D01*
X56484836Y-54362419D02*
X56294360Y-54362419D01*
X56294360Y-54362419D02*
X56199122Y-54314800D01*
X56199122Y-54314800D02*
X56103884Y-54219561D01*
X56103884Y-54219561D02*
X56056265Y-54029085D01*
X56056265Y-54029085D02*
X56056265Y-53695752D01*
X56056265Y-53695752D02*
X56103884Y-53505276D01*
X56103884Y-53505276D02*
X56199122Y-53410038D01*
X56199122Y-53410038D02*
X56294360Y-53362419D01*
X57484836Y-53838609D02*
X57151503Y-53838609D01*
X57151503Y-54362419D02*
X57151503Y-53362419D01*
X57151503Y-53362419D02*
X57627693Y-53362419D01*
X58341979Y-53838609D02*
X58008646Y-53838609D01*
X58008646Y-54362419D02*
X58008646Y-53362419D01*
X58008646Y-53362419D02*
X58484836Y-53362419D01*
X56284360Y-58452419D02*
X56474836Y-58452419D01*
X56474836Y-58452419D02*
X56570074Y-58500038D01*
X56570074Y-58500038D02*
X56665312Y-58595276D01*
X56665312Y-58595276D02*
X56712931Y-58785752D01*
X56712931Y-58785752D02*
X56712931Y-59119085D01*
X56712931Y-59119085D02*
X56665312Y-59309561D01*
X56665312Y-59309561D02*
X56570074Y-59404800D01*
X56570074Y-59404800D02*
X56474836Y-59452419D01*
X56474836Y-59452419D02*
X56284360Y-59452419D01*
X56284360Y-59452419D02*
X56189122Y-59404800D01*
X56189122Y-59404800D02*
X56093884Y-59309561D01*
X56093884Y-59309561D02*
X56046265Y-59119085D01*
X56046265Y-59119085D02*
X56046265Y-58785752D01*
X56046265Y-58785752D02*
X56093884Y-58595276D01*
X56093884Y-58595276D02*
X56189122Y-58500038D01*
X56189122Y-58500038D02*
X56284360Y-58452419D01*
X57141503Y-59452419D02*
X57141503Y-58452419D01*
X57141503Y-58452419D02*
X57712931Y-59452419D01*
X57712931Y-59452419D02*
X57712931Y-58452419D01*
D12*
X52214285Y-68931009D02*
X52357142Y-68978628D01*
X52357142Y-68978628D02*
X52404761Y-69026247D01*
X52404761Y-69026247D02*
X52452380Y-69121485D01*
X52452380Y-69121485D02*
X52452380Y-69264342D01*
X52452380Y-69264342D02*
X52404761Y-69359580D01*
X52404761Y-69359580D02*
X52357142Y-69407200D01*
X52357142Y-69407200D02*
X52261904Y-69454819D01*
X52261904Y-69454819D02*
X51880952Y-69454819D01*
X51880952Y-69454819D02*
X51880952Y-68454819D01*
X51880952Y-68454819D02*
X52214285Y-68454819D01*
X52214285Y-68454819D02*
X52309523Y-68502438D01*
X52309523Y-68502438D02*
X52357142Y-68550057D01*
X52357142Y-68550057D02*
X52404761Y-68645295D01*
X52404761Y-68645295D02*
X52404761Y-68740533D01*
X52404761Y-68740533D02*
X52357142Y-68835771D01*
X52357142Y-68835771D02*
X52309523Y-68883390D01*
X52309523Y-68883390D02*
X52214285Y-68931009D01*
X52214285Y-68931009D02*
X51880952Y-68931009D01*
X52738095Y-68454819D02*
X53309523Y-68454819D01*
X53023809Y-69454819D02*
X53023809Y-68454819D01*
X54166666Y-69454819D02*
X53595238Y-69454819D01*
X53880952Y-69454819D02*
X53880952Y-68454819D01*
X53880952Y-68454819D02*
X53785714Y-68597676D01*
X53785714Y-68597676D02*
X53690476Y-68692914D01*
X53690476Y-68692914D02*
X53595238Y-68740533D01*
X70261905Y-28454819D02*
X70261905Y-27454819D01*
X70261905Y-27454819D02*
X70500000Y-27454819D01*
X70500000Y-27454819D02*
X70642857Y-27502438D01*
X70642857Y-27502438D02*
X70738095Y-27597676D01*
X70738095Y-27597676D02*
X70785714Y-27692914D01*
X70785714Y-27692914D02*
X70833333Y-27883390D01*
X70833333Y-27883390D02*
X70833333Y-28026247D01*
X70833333Y-28026247D02*
X70785714Y-28216723D01*
X70785714Y-28216723D02*
X70738095Y-28311961D01*
X70738095Y-28311961D02*
X70642857Y-28407200D01*
X70642857Y-28407200D02*
X70500000Y-28454819D01*
X70500000Y-28454819D02*
X70261905Y-28454819D01*
X71785714Y-28454819D02*
X71214286Y-28454819D01*
X71500000Y-28454819D02*
X71500000Y-27454819D01*
X71500000Y-27454819D02*
X71404762Y-27597676D01*
X71404762Y-27597676D02*
X71309524Y-27692914D01*
X71309524Y-27692914D02*
X71214286Y-27740533D01*
X69654819Y-38571904D02*
X68654819Y-38571904D01*
X69654819Y-38000476D02*
X69083390Y-38429047D01*
X68654819Y-38000476D02*
X69226247Y-38571904D01*
X87833333Y-29859580D02*
X87785714Y-29907200D01*
X87785714Y-29907200D02*
X87642857Y-29954819D01*
X87642857Y-29954819D02*
X87547619Y-29954819D01*
X87547619Y-29954819D02*
X87404762Y-29907200D01*
X87404762Y-29907200D02*
X87309524Y-29811961D01*
X87309524Y-29811961D02*
X87261905Y-29716723D01*
X87261905Y-29716723D02*
X87214286Y-29526247D01*
X87214286Y-29526247D02*
X87214286Y-29383390D01*
X87214286Y-29383390D02*
X87261905Y-29192914D01*
X87261905Y-29192914D02*
X87309524Y-29097676D01*
X87309524Y-29097676D02*
X87404762Y-29002438D01*
X87404762Y-29002438D02*
X87547619Y-28954819D01*
X87547619Y-28954819D02*
X87642857Y-28954819D01*
X87642857Y-28954819D02*
X87785714Y-29002438D01*
X87785714Y-29002438D02*
X87833333Y-29050057D01*
X88214286Y-29050057D02*
X88261905Y-29002438D01*
X88261905Y-29002438D02*
X88357143Y-28954819D01*
X88357143Y-28954819D02*
X88595238Y-28954819D01*
X88595238Y-28954819D02*
X88690476Y-29002438D01*
X88690476Y-29002438D02*
X88738095Y-29050057D01*
X88738095Y-29050057D02*
X88785714Y-29145295D01*
X88785714Y-29145295D02*
X88785714Y-29240533D01*
X88785714Y-29240533D02*
X88738095Y-29383390D01*
X88738095Y-29383390D02*
X88166667Y-29954819D01*
X88166667Y-29954819D02*
X88785714Y-29954819D01*
X96031905Y-30454819D02*
X96031905Y-29454819D01*
X96031905Y-29454819D02*
X96270000Y-29454819D01*
X96270000Y-29454819D02*
X96412857Y-29502438D01*
X96412857Y-29502438D02*
X96508095Y-29597676D01*
X96508095Y-29597676D02*
X96555714Y-29692914D01*
X96555714Y-29692914D02*
X96603333Y-29883390D01*
X96603333Y-29883390D02*
X96603333Y-30026247D01*
X96603333Y-30026247D02*
X96555714Y-30216723D01*
X96555714Y-30216723D02*
X96508095Y-30311961D01*
X96508095Y-30311961D02*
X96412857Y-30407200D01*
X96412857Y-30407200D02*
X96270000Y-30454819D01*
X96270000Y-30454819D02*
X96031905Y-30454819D01*
X96984286Y-29550057D02*
X97031905Y-29502438D01*
X97031905Y-29502438D02*
X97127143Y-29454819D01*
X97127143Y-29454819D02*
X97365238Y-29454819D01*
X97365238Y-29454819D02*
X97460476Y-29502438D01*
X97460476Y-29502438D02*
X97508095Y-29550057D01*
X97508095Y-29550057D02*
X97555714Y-29645295D01*
X97555714Y-29645295D02*
X97555714Y-29740533D01*
X97555714Y-29740533D02*
X97508095Y-29883390D01*
X97508095Y-29883390D02*
X96936667Y-30454819D01*
X96936667Y-30454819D02*
X97555714Y-30454819D01*
D13*
%TO.C,Y1*%
X86710000Y-46170000D02*
X86710000Y-48200000D01*
X86710000Y-56830000D02*
X86710000Y-54800000D01*
X90010000Y-44900000D02*
X87980000Y-44900000D01*
X90010000Y-58100000D02*
X87980000Y-58100000D01*
X96610000Y-44900000D02*
X99910000Y-44900000D01*
X96610000Y-58100000D02*
X98640000Y-58100000D01*
X99910000Y-44900000D02*
X99910000Y-48200000D01*
X99910000Y-56830000D02*
X99910000Y-54800000D01*
X86710000Y-46170000D02*
G75*
G02*
X87980000Y-44900000I1270000J0D01*
G01*
X87980000Y-58100000D02*
G75*
G02*
X86710000Y-56830000I0J1270000D01*
G01*
X99910000Y-56830000D02*
G75*
G02*
X98640000Y-58100000I-1269999J-1D01*
G01*
D14*
X100589000Y-47690000D02*
G75*
G02*
X100389000Y-47690000I-100000J0D01*
G01*
X100389000Y-47690000D02*
G75*
G02*
X100589000Y-47690000I100000J0D01*
G01*
%TO.C,SW2*%
D10*
X50300000Y-50790000D02*
X55500000Y-50790000D01*
X55500000Y-42590000D01*
X50300000Y-42590000D01*
X50300000Y-50790000D01*
D15*
%TO.C,R4*%
X59280000Y-46880000D02*
X59280000Y-56120000D01*
X59280000Y-56120000D02*
X62720000Y-56120000D01*
X61000000Y-46190000D02*
X61000000Y-46880000D01*
X61000000Y-56810000D02*
X61000000Y-56120000D01*
X62720000Y-46880000D02*
X59280000Y-46880000D01*
X62720000Y-56120000D02*
X62720000Y-46880000D01*
%TO.C,C1*%
X51730000Y-31880000D02*
X51730000Y-37120000D01*
X52045000Y-31880000D02*
X51730000Y-31880000D01*
X52045000Y-37120000D02*
X51730000Y-37120000D01*
X54470000Y-31880000D02*
X54155000Y-31880000D01*
X54470000Y-31880000D02*
X54470000Y-37120000D01*
X54470000Y-37120000D02*
X54155000Y-37120000D01*
%TO.C,J2*%
D10*
X124355000Y-43960000D02*
X109455000Y-43960000D01*
X109455000Y-58860000D01*
X124355000Y-58860000D01*
X124355000Y-43960000D01*
D15*
%TO.C,U1*%
X78480000Y-46340000D02*
X83121000Y-46340000D01*
X78480000Y-49609000D02*
X79990000Y-49609000D01*
X78480000Y-53310000D02*
X79990000Y-53310000D01*
X78480000Y-56580000D02*
X78480000Y-46340000D01*
X78480000Y-56580000D02*
X83121000Y-56580000D01*
X79990000Y-56580000D02*
X79990000Y-46340000D01*
X83121000Y-56580000D02*
X83121000Y-46340000D01*
%TO.C,C3*%
X78630000Y-59130000D02*
X78630000Y-59445000D01*
X78630000Y-59130000D02*
X83870000Y-59130000D01*
X78630000Y-61555000D02*
X78630000Y-61870000D01*
X78630000Y-61870000D02*
X83870000Y-61870000D01*
X83870000Y-59130000D02*
X83870000Y-59445000D01*
X83870000Y-61555000D02*
X83870000Y-61870000D01*
%TO.C,J1*%
D10*
X32145000Y-58960000D02*
X47045000Y-58960000D01*
X47045000Y-44060000D01*
X32145000Y-44060000D01*
X32145000Y-58960000D01*
D13*
%TO.C,RV1*%
X65735000Y-46735000D02*
X65735000Y-56265000D01*
X65735000Y-56265000D02*
X75265000Y-56265000D01*
X75265000Y-46735000D02*
X65735000Y-46735000D01*
X75265000Y-56265000D02*
X75265000Y-46735000D01*
D14*
X65200000Y-53900000D02*
G75*
G02*
X65000000Y-53900000I-100000J0D01*
G01*
X65000000Y-53900000D02*
G75*
G02*
X65200000Y-53900000I100000J0D01*
G01*
D15*
%TO.C,R3*%
X79180000Y-29880000D02*
X79180000Y-39120000D01*
X79180000Y-39120000D02*
X82620000Y-39120000D01*
X80900000Y-29190000D02*
X80900000Y-29880000D01*
X80900000Y-39810000D02*
X80900000Y-39120000D01*
X82620000Y-29880000D02*
X79180000Y-29880000D01*
X82620000Y-39120000D02*
X82620000Y-29880000D01*
%TO.C,R1*%
X59280000Y-29880000D02*
X59280000Y-39120000D01*
X59280000Y-39120000D02*
X62720000Y-39120000D01*
X61000000Y-29190000D02*
X61000000Y-29880000D01*
X61000000Y-39810000D02*
X61000000Y-39120000D01*
X62720000Y-29880000D02*
X59280000Y-29880000D01*
X62720000Y-39120000D02*
X62720000Y-29880000D01*
%TO.C,R5*%
X103280000Y-46880000D02*
X103280000Y-56120000D01*
X103280000Y-56120000D02*
X106720000Y-56120000D01*
X105000000Y-46190000D02*
X105000000Y-46880000D01*
X105000000Y-56810000D02*
X105000000Y-56120000D01*
X106720000Y-46880000D02*
X103280000Y-46880000D01*
X106720000Y-56120000D02*
X106720000Y-46880000D01*
%TO.C,SW1*%
D10*
X50290000Y-60390000D02*
X55490000Y-60390000D01*
X55490000Y-52190000D01*
X50290000Y-52190000D01*
X50290000Y-60390000D01*
D15*
%TO.C,BT1*%
X51670000Y-71170000D02*
X53000000Y-71170000D01*
X51670000Y-72500000D02*
X51670000Y-71170000D01*
X51670000Y-73770000D02*
X51670000Y-76370000D01*
X51670000Y-73770000D02*
X54330000Y-73770000D01*
X51670000Y-76370000D02*
X54330000Y-76370000D01*
X54330000Y-73770000D02*
X54330000Y-76370000D01*
%TO.C,D1*%
X69880000Y-32380000D02*
X69880000Y-36620000D01*
X69880000Y-35780000D02*
X72120000Y-35780000D01*
X69880000Y-35900000D02*
X72120000Y-35900000D01*
X69880000Y-36020000D02*
X72120000Y-36020000D01*
X69880000Y-36620000D02*
X72120000Y-36620000D01*
X71000000Y-31730000D02*
X71000000Y-32380000D01*
X71000000Y-37270000D02*
X71000000Y-36620000D01*
X72120000Y-32380000D02*
X69880000Y-32380000D01*
X72120000Y-36620000D02*
X72120000Y-32380000D01*
%TO.C,C2*%
X86730000Y-31880000D02*
X87045000Y-31880000D01*
X86730000Y-37120000D02*
X86730000Y-31880000D01*
X86730000Y-37120000D02*
X87045000Y-37120000D01*
X89155000Y-31880000D02*
X89470000Y-31880000D01*
X89155000Y-37120000D02*
X89470000Y-37120000D01*
X89470000Y-37120000D02*
X89470000Y-31880000D01*
%TO.C,D2*%
X94210000Y-32955000D02*
X94210000Y-36045000D01*
X94210000Y-32955170D02*
G75*
G02*
X99760000Y-34499952I2560000J-1544830D01*
G01*
X99760000Y-34500048D02*
G75*
G02*
X94210000Y-36044830I-2990000J48D01*
G01*
X99270000Y-34500000D02*
G75*
G02*
X94270000Y-34500000I-2500000J0D01*
G01*
X94270000Y-34500000D02*
G75*
G02*
X99270000Y-34500000I2500000J0D01*
G01*
%TD*%
%LPC*%
D16*
%TO.C,Y1*%
X97120000Y-47690000D03*
D17*
X89500000Y-47690000D03*
X89500000Y-55310000D03*
X97120000Y-55310000D03*
%TD*%
D18*
%TO.C,SW2*%
X53000000Y-48860000D03*
X53000000Y-46370000D03*
%TD*%
D19*
%TO.C,REF\u002A\u002A*%
X121000000Y-81000000D03*
%TD*%
%TO.C,REF\u002A\u002A*%
X35500000Y-23000000D03*
%TD*%
D20*
%TO.C,R4*%
X61000000Y-45150000D03*
D21*
X61000000Y-57850000D03*
%TD*%
D20*
%TO.C,C1*%
X53100000Y-32000000D03*
X53100000Y-37000000D03*
%TD*%
D22*
%TO.C,J2*%
X114665000Y-46360000D03*
X114675000Y-56500000D03*
X109595000Y-51420000D03*
X109605000Y-48870000D03*
%TD*%
D23*
%TO.C,U1*%
X81750000Y-54000000D03*
D24*
X81750000Y-51460000D03*
X81750000Y-48920000D03*
%TD*%
D19*
%TO.C,REF\u002A\u002A*%
X121000000Y-23000000D03*
%TD*%
D20*
%TO.C,C3*%
X78750000Y-60500000D03*
X83750000Y-60500000D03*
%TD*%
D22*
%TO.C,J1*%
X41835000Y-56560000D03*
X41825000Y-46420000D03*
X46905000Y-51500000D03*
X46895000Y-54050000D03*
%TD*%
D25*
%TO.C,RV1*%
X67960000Y-54040000D03*
D26*
X70500000Y-48960000D03*
X73040000Y-54040000D03*
%TD*%
D20*
%TO.C,R3*%
X80900000Y-28150000D03*
D21*
X80900000Y-40850000D03*
%TD*%
D20*
%TO.C,R1*%
X61000000Y-28150000D03*
D21*
X61000000Y-40850000D03*
%TD*%
D19*
%TO.C,REF\u002A\u002A*%
X35500000Y-81000000D03*
%TD*%
D20*
%TO.C,R5*%
X105000000Y-45150000D03*
D21*
X105000000Y-57850000D03*
%TD*%
D18*
%TO.C,SW1*%
X52990000Y-58460000D03*
X52990000Y-55970000D03*
%TD*%
D27*
%TO.C,BT1*%
X53000000Y-72500000D03*
D28*
X53000000Y-75040000D03*
%TD*%
D29*
%TO.C,D1*%
X71000000Y-38310000D03*
D21*
X71000000Y-30690000D03*
%TD*%
D20*
%TO.C,C2*%
X88100000Y-37000000D03*
X88100000Y-32000000D03*
%TD*%
D30*
%TO.C,D2*%
X95500000Y-34500000D03*
D31*
X98040000Y-34500000D03*
%TD*%
%LPD*%
M02*
