M48
; DRILL file {KiCad 9.0.0} date 2025-08-17T08:59:54-0700
; FORMAT={-:-/ absolute / metric / decimal}
; #@! TF.CreationDate,2025-08-17T08:59:54-07:00
; #@! TF.GenerationSoftware,Kicad,Pcbnew,9.0.0
; #@! TF.FileFunction,Plated,1,2,PTH
FMAT,2
METRIC
; #@! TA.AperFunction,Plated,PTH,ComponentDrill
T1C0.700
; #@! TA.AperFunction,Plated,PTH,ComponentDrill
T2C0.760
; #@! TA.AperFunction,Plated,PTH,ComponentDrill
T3C0.800
; #@! TA.AperFunction,Plated,PTH,ComponentDrill
T4C0.890
; #@! TA.AperFunction,Plated,PTH,ComponentDrill
T5C0.900
; #@! TA.AperFunction,Plated,PTH,ComponentDrill
T6C1.000
; #@! TA.AperFunction,Plated,PTH,ComponentDrill
T7C1.100
; #@! TA.AperFunction,Plated,PTH,ComponentDrill
T8C1.500
%
G90
G05
T1
X89.5Y-47.69
X89.5Y-55.31
X97.12Y-47.69
X97.12Y-55.31
T2
X67.96Y-54.04
X70.5Y-48.96
X73.04Y-54.04
T3
X53.1Y-32.0
X53.1Y-37.0
X61.0Y-28.15
X61.0Y-40.85
X61.0Y-45.15
X61.0Y-57.85
X71.0Y-30.69
X71.0Y-38.31
X78.75Y-60.5
X80.9Y-28.15
X80.9Y-40.85
X83.75Y-60.5
X88.1Y-32.0
X88.1Y-37.0
X105.0Y-45.15
X105.0Y-57.85
T4
X46.895Y-54.05
X46.905Y-51.5
X109.595Y-51.42
X109.605Y-48.87
T5
X95.5Y-34.5
X98.04Y-34.5
T6
X53.0Y-72.5
X53.0Y-75.04
T7
X81.75Y-48.92
X81.75Y-51.46
X81.75Y-54.0
T8
X52.99Y-55.97
X52.99Y-58.46
X53.0Y-46.37
X53.0Y-48.86
M30
